<svg width="185" height="185" viewBox="0 0 185 185" fill="none" xmlns="http://www.w3.org/2000/svg">
<g opacity="0.5" filter="url(#filter0_f_338_332)">
<circle cx="92.2268" cy="92.3258" r="55.1936" fill="white"/>
</g>
<path d="M150.123 138.06H36.4489C36.4489 138.06 31.9294 139.535 29.4364 127.798C26.9435 116.061 39.7739 112.916 42.8247 102.78C45.8755 92.6441 32.5661 94.7778 33.6849 80.9073C34.8037 67.0369 53.0928 66.769 61.9648 68.6379C70.8367 70.5069 69.7273 64.1027 79.986 53.4311C90.2446 42.7596 105.763 43.8312 113.523 52.098C121.282 60.3648 118.792 68.9027 128.496 68.9027C138.2 68.9027 147.072 70.7716 152.893 88.6415C158.715 106.511 148.074 114.681 148.267 122.736C148.429 127.889 149.051 133.017 150.123 138.06Z" fill="white" fill-opacity="0.1"/>
<path d="M100.511 51.7703H79.0801V82.6566H100.511V51.7703Z" fill="#5A2AD1"/>
<path opacity="0.4" d="M100.511 51.7703H79.0801V82.6566H100.511V51.7703Z" fill="white"/>
<path d="M97.4502 56.1826H82.1426V78.2442H97.4502V56.1826Z" fill="white"/>
<path d="M62.0141 70.2611H47.1445V91.6924H62.0141V70.2611Z" fill="#5A2AD1"/>
<path opacity="0.4" d="M62.0141 70.2611H47.1445V91.6924H62.0141V70.2611Z" fill="white"/>
<path d="M59.8887 73.3214H49.2676V88.629H59.8887V73.3214Z" fill="white"/>
<path d="M134.186 70.2611H119.316V91.6924H134.186V70.2611Z" fill="#5A2AD1"/>
<path opacity="0.4" d="M134.186 70.2611H119.316V91.6924H134.186V70.2611Z" fill="white"/>
<path d="M132.064 73.3214H121.443V88.629H132.064V73.3214Z" fill="white"/>
<path d="M117.622 113.136C116.992 114.712 116.324 113.452 116.428 106.814C116.478 103.707 116.696 97.3591 120.134 98.7553C123.434 100.098 119.085 109.487 119.085 109.487L117.622 113.136ZM122.35 114.082C122.35 114.082 129.513 106.616 126.825 104.274C124.03 101.834 121.76 107.769 120.705 110.694C118.454 116.931 118.662 118.346 119.781 117.057L122.35 114.082ZM123.859 120.782C123.859 120.782 130.418 116.112 128.704 113.931C126.92 111.661 124.326 115.872 123.094 117.952C120.468 122.396 120.424 123.508 121.464 122.68L123.859 120.782ZM125.634 127.464C125.634 127.464 132.196 122.793 130.481 120.612C128.694 118.343 126.1 122.55 124.871 124.634C122.246 129.074 122.198 130.19 123.242 129.361L125.634 127.464ZM114.181 114.031C114.181 114.031 105 109.253 103.509 112.49C101.955 115.859 108.287 116.37 111.388 116.559C118.007 116.969 119.308 116.37 117.758 115.658L114.181 114.031ZM115.473 119.288C115.473 119.288 105.526 116.433 104.707 119.903C103.856 123.512 110.162 122.739 113.241 122.323C119.81 121.409 120.963 120.565 119.302 120.174L115.473 119.288ZM117.748 125.024C117.748 125.024 109.274 122.837 108.659 125.79C108.029 128.863 113.339 128.075 115.933 127.64C121.464 126.714 122.422 125.973 121.01 125.683L117.748 125.024ZM119.075 129.752C119.075 129.752 110.881 126.676 109.957 129.547C108.996 132.538 114.37 132.317 116.992 132.16C122.592 131.826 123.61 131.192 122.246 130.751L119.075 129.752ZM113.582 105.758C113.582 105.758 109.841 94.1287 105.592 96.2434C101.18 98.4496 106.279 103.685 108.835 106.196C114.285 111.554 115.971 111.926 115.255 110.057L113.582 105.758Z" fill="white"/>
<path d="M107.371 100.401C107.371 100.401 116.769 111.866 119.016 117.605C121.601 124.202 123.359 131.63 123.709 137.776" stroke="#CCCCCC" stroke-width="1.25197" stroke-linecap="round" stroke-linejoin="round"/>
<path d="M117.145 113.858L118.452 102.925" stroke="#CCCCCC" stroke-width="1.25197" stroke-linecap="round" stroke-linejoin="round"/>
<path d="M119.018 117.602L123.745 108.412" stroke="#CCCCCC" stroke-width="1.25197" stroke-linecap="round" stroke-linejoin="round"/>
<path d="M118.328 116.241L108.426 114.224" stroke="#CCCCCC" stroke-width="1.25197" stroke-linecap="round" stroke-linejoin="round"/>
<path d="M120.877 122.818L126.698 116.187" stroke="#CCCCCC" stroke-width="1.25197" stroke-linecap="round" stroke-linejoin="round"/>
<path d="M120.064 120.634L112.592 120.568" stroke="#CCCCCC" stroke-width="1.25197" stroke-linecap="round" stroke-linejoin="round"/>
<path d="M121.504 126.061L115.771 126.285" stroke="#CCCCCC" stroke-width="1.25197" stroke-linecap="round" stroke-linejoin="round"/>
<path d="M122.68 129.522L125.749 125.431" stroke="#CCCCCC" stroke-width="1.25197" stroke-linecap="round" stroke-linejoin="round"/>
<path d="M122.906 131.044L116.199 130.71" stroke="#CCCCCC" stroke-width="1.25197" stroke-linecap="round" stroke-linejoin="round"/>
<path d="M141.582 122.191C140.425 122.626 140.778 121.652 144.355 118.45C146.032 116.947 149.518 113.943 150.463 116.458C151.374 118.876 144.242 121.186 144.242 121.186L141.582 122.191ZM143.4 125.163C143.4 125.163 150.895 125.305 150.819 122.724C150.74 120.038 146.47 121.747 144.396 122.623C139.984 124.492 139.319 125.299 140.554 125.261L143.4 125.163ZM140.58 129.26C140.58 129.26 146.287 130.455 146.605 128.469C146.921 126.405 143.419 127.095 141.708 127.464C138.055 128.249 137.44 128.772 138.389 128.923L140.58 129.26ZM137.91 133.493C137.91 133.493 143.621 134.687 143.936 132.702C144.267 130.638 140.753 131.325 139.038 131.693C135.389 132.478 134.758 133.001 135.704 133.153L137.91 133.493ZM139.426 120.798C139.426 120.798 137.453 113.565 135.014 114.362C132.458 115.191 135.3 118.812 136.725 120.555C139.76 124.277 140.718 124.675 140.334 123.499L139.426 120.798ZM137.264 124.069C137.264 124.069 133.895 117.375 131.648 118.642C129.306 119.966 132.811 122.947 134.55 124.372C138.266 127.417 139.278 127.615 138.676 126.54L137.264 124.069ZM135.332 128.097C135.332 128.097 132.328 122.516 130.456 123.641C128.509 124.813 131.541 127.253 133.047 128.419C136.259 130.905 137.122 131.05 136.583 130.155L135.332 128.097ZM133.466 131.132C133.466 131.132 131.071 125.261 129.092 126.181C127.031 127.127 129.785 129.887 131.159 131.208C134.09 134.022 134.941 134.259 134.494 133.31L133.466 131.132ZM143.523 116.424C143.523 116.424 147.869 108.718 144.658 107.498C141.317 106.237 141.037 111.523 140.958 114.117C140.788 119.651 141.418 120.735 142.061 119.43L143.523 116.424Z" fill="white"/>
<path d="M143.317 110.486C143.317 110.486 141.839 121.119 139.891 125.138C137.654 129.752 134.275 134.665 131.174 137.874" stroke="#CCCCCC" stroke-width="1.25197" stroke-linecap="round" stroke-linejoin="round"/>
<path d="M140.963 122.292L147.421 117.615" stroke="#CCCCCC" stroke-width="1.25197" stroke-linecap="round" stroke-linejoin="round"/>
<path d="M139.891 125.128L147.102 123.124" stroke="#CCCCCC" stroke-width="1.25197" stroke-linecap="round" stroke-linejoin="round"/>
<path d="M140.275 124.091L136.48 117.832" stroke="#CCCCCC" stroke-width="1.25197" stroke-linecap="round" stroke-linejoin="round"/>
<path d="M138.031 128.68L144.42 128.516" stroke="#CCCCCC" stroke-width="1.25197" stroke-linecap="round" stroke-linejoin="round"/>
<path d="M138.793 127.174L135.152 123.165" stroke="#CCCCCC" stroke-width="1.25197" stroke-linecap="round" stroke-linejoin="round"/>
<path d="M136.613 130.606L133.676 127.669" stroke="#CCCCCC" stroke-width="1.25197" stroke-linecap="round" stroke-linejoin="round"/>
<path d="M135.35 132.935L139.037 132.557" stroke="#CCCCCC" stroke-width="1.25197" stroke-linecap="round" stroke-linejoin="round"/>
<path d="M134.65 133.802L131.533 130.073" stroke="#CCCCCC" stroke-width="1.25197" stroke-linecap="round" stroke-linejoin="round"/>
<path d="M45.0036 113.136C44.3732 114.712 43.7051 113.451 43.8091 106.814C43.8595 103.706 44.077 97.359 47.5154 98.7551C50.8184 100.098 46.4659 109.487 46.4659 109.487L45.0036 113.136ZM49.7311 114.082C49.7311 114.082 56.8948 106.615 54.2096 104.274C51.4109 101.834 49.1417 107.769 48.0859 110.694C45.8356 116.931 46.0436 118.346 47.1625 117.057L49.7311 114.082ZM51.2407 120.776C51.2407 120.776 57.8025 116.105 56.0848 113.924C54.301 111.655 51.7072 115.866 50.4749 117.946C47.8495 122.389 47.8054 123.502 48.8486 122.673L51.2407 120.776ZM53.0182 127.457C53.0182 127.457 59.5706 122.777 57.8592 120.606C56.0722 118.336 53.4784 122.544 52.2492 124.627C49.6239 129.068 49.5766 130.184 50.6198 129.355L53.0182 127.457ZM41.5556 114.025C41.5556 114.025 32.378 109.247 30.8841 112.484C29.3303 115.853 35.662 116.363 38.7633 116.553C45.3818 116.962 46.6803 116.363 45.1296 115.651L41.5556 114.025ZM42.8478 119.282C42.8478 119.282 32.9043 116.427 32.0818 119.896C31.2308 123.505 37.5373 122.733 40.6165 122.317C47.1845 121.403 48.3412 120.558 46.6803 120.168L42.8478 119.282ZM45.1233 125.018C45.1233 125.018 36.6485 122.831 36.0339 125.784C35.4036 128.857 40.7142 128.069 43.308 127.634C48.8391 126.707 49.7973 125.967 48.3853 125.677L45.1233 125.018ZM46.4502 129.745C46.4502 129.745 38.2559 126.669 37.3324 129.541C36.3712 132.532 41.7448 132.311 44.3669 132.153C49.9674 131.819 50.9854 131.186 49.6239 130.745L46.4502 129.745ZM40.9631 105.758C40.9631 105.758 37.2221 94.1411 32.9611 96.2559C28.5487 98.462 33.6481 103.697 36.2041 106.209C41.6565 111.567 43.3426 111.939 42.6241 110.07L40.9631 105.758Z" fill="white"/>
<path d="M34.752 100.401C34.752 100.401 44.1502 111.866 46.3973 117.605C48.9817 124.202 50.7403 131.63 51.0902 137.776" stroke="#CCCCCC" stroke-width="1.25197" stroke-linecap="round" stroke-linejoin="round"/>
<path d="M44.5276 113.858L45.8323 102.925" stroke="#CCCCCC" stroke-width="1.25197" stroke-linecap="round" stroke-linejoin="round"/>
<path d="M46.3966 117.602L51.1241 108.412" stroke="#CCCCCC" stroke-width="1.25197" stroke-linecap="round" stroke-linejoin="round"/>
<path d="M45.706 116.241L35.8066 114.224" stroke="#CCCCCC" stroke-width="1.25197" stroke-linecap="round" stroke-linejoin="round"/>
<path d="M48.2559 122.818L54.077 116.187" stroke="#CCCCCC" stroke-width="1.25197" stroke-linecap="round" stroke-linejoin="round"/>
<path d="M47.4413 120.634L39.9688 120.568" stroke="#CCCCCC" stroke-width="1.25197" stroke-linecap="round" stroke-linejoin="round"/>
<path d="M48.8833 126.061L43.1504 126.285" stroke="#CCCCCC" stroke-width="1.25197" stroke-linecap="round" stroke-linejoin="round"/>
<path d="M50.0625 129.522L53.1322 125.431" stroke="#CCCCCC" stroke-width="1.25197" stroke-linecap="round" stroke-linejoin="round"/>
<path d="M50.2867 131.044L43.5799 130.71" stroke="#CCCCCC" stroke-width="1.25197" stroke-linecap="round" stroke-linejoin="round"/>
<path d="M68.963 122.191C67.8064 122.626 68.1593 121.652 71.7365 118.45C73.4163 116.947 76.8989 113.943 77.8444 116.458C78.7552 118.876 71.623 121.186 71.623 121.186L68.963 122.191ZM70.7815 125.163C70.7815 125.163 78.2762 125.305 78.2005 122.724C78.1218 120.038 73.8513 121.747 71.7775 122.623C67.3651 124.492 66.7001 125.299 67.9356 125.261L70.7815 125.163ZM67.9608 129.26C67.9608 129.26 73.6685 130.455 73.9868 128.469C74.3019 126.405 70.8004 127.095 69.0891 127.464C65.4237 128.249 64.8217 128.765 65.7704 128.923L67.9608 129.26ZM65.2787 133.493C65.2787 133.493 70.9895 134.687 71.3047 132.702C71.6356 130.638 68.1215 131.325 66.4102 131.693C62.7542 132.481 62.1397 133.004 63.0915 133.156L65.2787 133.493ZM66.7947 120.798C66.7947 120.798 64.8249 113.565 62.3824 114.362C59.8264 115.191 62.666 118.812 64.0906 120.555C67.1256 124.277 68.0837 124.675 67.6992 123.499L66.7947 120.798ZM64.6326 124.069C64.6326 124.069 61.2635 117.375 59.0164 118.642C56.6747 119.966 60.1793 122.947 61.9222 124.372C65.638 127.417 66.6497 127.615 66.0446 126.54L64.6326 124.069ZM62.7007 128.097C62.7007 128.097 59.6971 122.516 57.825 123.641C55.8773 124.813 58.9092 127.253 60.4157 128.419C63.6273 130.905 64.494 131.05 63.9519 130.155L62.7007 128.097ZM60.8349 131.132C60.8349 131.132 58.4428 125.261 56.4604 126.181C54.3992 127.127 57.1569 129.887 58.5279 131.208C61.4589 134.022 62.3099 134.259 61.8623 133.31L60.8349 131.132ZM70.8918 116.424C70.8918 116.424 75.2411 108.718 72.0296 107.498C68.6857 106.237 68.4083 111.523 68.3264 114.117C68.1594 119.651 68.7865 120.735 69.4295 119.43L70.8918 116.424Z" fill="white"/>
<path d="M70.6961 110.486C70.6961 110.486 69.218 121.119 67.2702 125.138C65.0326 129.752 61.654 134.665 58.5527 137.874" stroke="#CCCCCC" stroke-width="1.25197" stroke-linecap="round" stroke-linejoin="round"/>
<path d="M68.3418 122.292L74.7996 117.615" stroke="#CCCCCC" stroke-width="1.25197" stroke-linecap="round" stroke-linejoin="round"/>
<path d="M67.2715 125.128L74.4825 123.124" stroke="#CCCCCC" stroke-width="1.25197" stroke-linecap="round" stroke-linejoin="round"/>
<path d="M67.654 124.091L63.8594 117.832" stroke="#CCCCCC" stroke-width="1.25197" stroke-linecap="round" stroke-linejoin="round"/>
<path d="M65.4102 128.68L71.7986 128.516" stroke="#CCCCCC" stroke-width="1.25197" stroke-linecap="round" stroke-linejoin="round"/>
<path d="M66.1734 127.174L62.5332 123.165" stroke="#CCCCCC" stroke-width="1.25197" stroke-linecap="round" stroke-linejoin="round"/>
<path d="M63.992 130.606L61.0547 127.669" stroke="#CCCCCC" stroke-width="1.25197" stroke-linecap="round" stroke-linejoin="round"/>
<path d="M62.7266 132.935L66.414 132.557" stroke="#CCCCCC" stroke-width="1.25197" stroke-linecap="round" stroke-linejoin="round"/>
<path d="M62.0303 133.802L58.9102 130.073" stroke="#CCCCCC" stroke-width="1.25197" stroke-linecap="round" stroke-linejoin="round"/>
<path d="M87.0029 72.8864C87.0029 72.8864 82.9688 71.6005 79.8833 74.7774C76.7978 77.9543 78.4241 84.2986 78.4241 86.5268C78.4241 88.755 75.5876 102.915 75.5876 102.915C75.5876 102.915 74.2135 108.062 77.9892 111.324C81.7649 114.586 88.7426 114.302 91.721 108.024C94.6993 101.746 91.5413 92.7954 91.5413 88.1688C91.5413 83.5422 92.2284 80.4504 91.1978 77.1065C90.8849 76.12 90.341 75.2224 89.6114 74.4884C88.8818 73.7544 87.9875 73.2052 87.0029 72.8864Z" fill="#263238" stroke="#263238" stroke-linecap="round" stroke-linejoin="round"/>
<path d="M85.8055 75.2911C85.8055 75.2911 81.9164 80.1258 79.291 81.4905" stroke="white" stroke-linecap="round" stroke-linejoin="round"/>
<path d="M82.4422 74.8719C82.4422 74.8719 80.4471 79.7034 78.6602 81.0713" stroke="white" stroke-linecap="round" stroke-linejoin="round"/>
<path d="M93.6339 91.4907C94.0066 91.7519 94.3195 92.0892 94.552 92.4804C94.7846 92.8716 94.9314 93.3077 94.9828 93.7599C95.2129 95.3672 93.4984 99.083 93.1549 100.92C92.8302 103.151 92.6209 105.397 92.5277 107.649C92.5277 108.223 94.4817 116.72 94.8252 118.787C95.1688 120.855 94.6519 125.721 94.3651 126.077C94.0783 126.433 93.2746 124.756 93.2179 123.666C93.1612 122.576 91.0369 114.192 90.2333 111.668C89.4296 109.143 89.6565 105.812 89.6565 105.812C89.6565 105.812 90.7501 98.1753 90.7501 95.2474C90.7501 92.3196 90.8384 90.1292 90.8384 90.1292L93.6339 91.4907Z" fill="#5A2AD1" stroke="#263238" stroke-linecap="round" stroke-linejoin="round"/>
<path d="M94.36 126.064C94.6468 125.721 95.1637 120.839 94.8201 118.775C94.4766 116.71 92.5289 108.21 92.5289 107.649C92.6236 105.401 92.834 103.16 93.1592 100.933C93.2853 100.344 93.4474 99.7628 93.6446 99.1934C92.9692 99.5185 92.229 99.6866 91.4794 99.685C91.0791 99.685 90.6883 100.054 90.3133 100.681C89.9981 103.347 89.6546 105.812 89.6546 105.812C89.6546 105.812 89.4276 109.14 90.2313 111.668C91.035 114.195 93.1592 122.576 93.2159 123.666C93.2727 124.756 94.0732 126.408 94.36 126.064Z" fill="white" stroke="#263238" stroke-linecap="round" stroke-linejoin="round"/>
<path d="M82.8336 138.119C82.9597 136.708 83.2245 133.833 83.3946 132.724C83.6247 131.233 84.0817 128.189 84.0817 128.189L85.2447 138.119H93.2121C93.4989 135.954 94.2206 130.149 94.3593 126.064C94.5326 120.956 90.6844 110.391 90.5773 109.587C90.4701 108.784 90.6907 106.436 90.6907 105.742C90.6907 105.049 92.6952 100.649 92.8654 98.4085C93.0356 96.1677 93.5556 95.4806 93.5556 95.4806L93.8424 91.6986C93.6691 91.6419 91.0942 89.6154 88.5098 88.8621C86.9381 88.4161 85.2787 88.377 83.6877 88.7487C83.6877 88.7487 79.9562 90.4127 78.062 91.2164C76.1679 92.0201 74.611 93.5707 74.5637 95.5783C74.5164 97.5859 78.2354 106.143 78.582 106.776C78.9287 107.41 77.8351 109.644 77.375 110.795C76.9148 111.945 75.0207 116.077 73.76 120.669C72.679 124.589 73.4007 135.125 73.6371 138.119H82.8336Z" fill="#5A2AD1" stroke="#263238" stroke-linecap="round" stroke-linejoin="round"/>
<path d="M84.625 105.191C84.625 105.191 87.5687 105.544 90.5155 102.717" stroke="#263238" stroke-linecap="round" stroke-linejoin="round"/>
<path d="M86.6667 96.9587C87.5271 96.7287 88.6207 93.1768 88.7342 91.333C88.7972 90.3024 88.8602 89.5334 88.8319 88.9661C88.7247 88.9315 88.6144 88.8936 88.5167 88.8621C86.945 88.4161 85.2856 88.377 83.6946 88.7487L82.1755 89.4231C82.0487 90.2395 82.1367 91.0748 82.4308 91.8468C83.0517 93.5707 85.8063 97.1888 86.6667 96.9587Z" fill="white" stroke="#263238" stroke-linecap="round" stroke-linejoin="round"/>
<path d="M82.8205 86.9869C82.8205 86.9869 83.1105 90.3687 83.2838 91.1976C83.4572 92.0265 85.2 95.2947 86.1865 95.1151C87.173 94.9354 87.8002 90.6649 87.8002 90.2489C87.8002 89.8329 87.9168 86.4669 87.9168 86.4669C87.9168 86.4669 85.8398 88.172 82.8205 86.9869Z" fill="white" stroke="#263238" stroke-linecap="round" stroke-linejoin="round"/>
<path d="M77.1374 91.7901C77.1374 91.7901 74.7862 91.9067 73.4657 94.5478C72.1451 97.1889 73.6926 98.9601 74.2095 100C74.7263 101.04 76.1635 105.282 76.6205 106.546C77.0775 107.81 78.0009 109.301 79.6083 111.368C81.2156 113.436 84.6005 117.854 84.6005 117.854L85.5208 119.462C85.5208 119.462 87.0714 121.242 87.2416 121.299C87.4118 121.356 88.4487 122.676 88.8489 121.873C89.2492 121.069 88.8489 118.201 88.8489 118.201C88.8489 118.201 89.4793 119.462 89.7125 119.175C89.9457 118.888 89.6526 118.258 89.4257 117.568C89.1988 116.877 87.0746 115.56 86.6113 115.5C86.148 115.44 85.5775 114.87 84.8905 113.492C84.2034 112.115 83.6834 109.71 82.5929 108.267C81.5024 106.824 80.0716 104.709 80.0716 104.709C80.0716 104.709 78.4642 98.9664 78.4642 98.7364C78.5816 97.6641 78.4244 96.5795 78.0072 95.5847" fill="#5A2AD1"/>
<path d="M77.1374 91.7901C77.1374 91.7901 74.7862 91.9067 73.4657 94.5478C72.1451 97.1889 73.6926 98.9601 74.2095 100C74.7263 101.04 76.1635 105.282 76.6205 106.546C77.0775 107.81 78.0009 109.301 79.6083 111.368C81.2156 113.436 84.6005 117.854 84.6005 117.854L85.5208 119.462C85.5208 119.462 87.0714 121.242 87.2416 121.299C87.4118 121.356 88.4487 122.676 88.8489 121.873C89.2492 121.069 88.8489 118.201 88.8489 118.201C88.8489 118.201 89.4793 119.462 89.7125 119.175C89.9457 118.888 89.6526 118.258 89.4257 117.568C89.1988 116.877 87.0746 115.56 86.6113 115.5C86.148 115.44 85.5775 114.87 84.8905 113.492C84.2034 112.115 83.6834 109.71 82.5929 108.267C81.5024 106.824 80.0716 104.709 80.0716 104.709C80.0716 104.709 78.4642 98.9664 78.4642 98.7364C78.5816 97.6641 78.4244 96.5795 78.0072 95.5847" stroke="#263238" stroke-linecap="round" stroke-linejoin="round"/>
<path d="M86.6108 115.5C86.1506 115.443 85.577 114.87 84.89 113.492C84.2029 112.115 83.6829 109.71 82.5924 108.267C81.5019 106.824 80.0711 104.709 80.0711 104.709C80.0711 104.709 78.9838 100.82 78.5993 99.3163C76.4876 99.02 75.0946 99.4455 74.209 99.9876C74.7259 101.021 76.163 105.27 76.62 106.534C77.077 107.797 78.0004 109.288 79.6078 111.356C81.2151 113.423 84.6 117.842 84.6 117.842L85.5203 119.449C85.5203 119.449 87.0709 121.23 87.2411 121.286C87.4113 121.343 88.4482 122.664 88.8485 121.86C89.2487 121.056 88.8485 118.188 88.8485 118.188C88.8485 118.188 89.4788 119.449 89.712 119.162C89.9452 118.875 89.6521 118.245 89.4252 117.555C89.1983 116.865 87.0741 115.56 86.6108 115.5Z" fill="white" stroke="#263238" stroke-linecap="round" stroke-linejoin="round"/>
<path d="M82.8336 138.12C82.9597 136.708 83.2245 133.833 83.3946 132.724C83.6247 131.233 84.0817 128.189 84.0817 128.189L85.2447 138.12H93.2121C93.4989 135.954 94.2206 130.149 94.3593 126.064C94.4318 123.937 93.8046 120.861 93.0419 117.939C86.3068 119.414 78.6703 118.346 74.7055 117.577C74.3714 118.563 74.0437 119.6 73.76 120.669C72.679 124.589 73.4007 135.125 73.6371 138.12H82.8336Z" fill="#263238" stroke="#263238" stroke-linecap="round" stroke-linejoin="round"/>
<path d="M80.8243 81.9506C80.8243 81.9506 80.3105 81.7206 80.3105 82.7512C80.3105 83.7817 81.4546 84.4657 81.4546 84.4657L80.8243 81.9506Z" fill="white" stroke="#263238" stroke-linecap="round" stroke-linejoin="round"/>
<path d="M86.7232 76.2902C86.7232 76.2902 84.889 78.8746 83.2785 79.9083C82.4476 80.4547 81.5857 80.9524 80.6973 81.3991C80.6973 81.3991 81.5009 84.7304 81.8445 85.8114C82.188 86.8924 83.2186 88.8023 85.2861 88.9158C87.3536 89.0292 88.2739 86.8451 88.6773 85.8114C88.9069 85.2773 89.03 84.7034 89.0397 84.1221C89.3298 83.9388 89.5773 83.6954 89.7654 83.4083C89.9535 83.1212 90.0779 82.7972 90.1302 82.458C90.2437 81.3676 89.9568 81.4243 89.9568 81.4243C89.9568 81.4243 89.6417 81.7804 88.9578 81.2446C88.4031 80.8318 86.5404 77.8408 86.7232 76.2902Z" fill="white" stroke="#263238" stroke-linecap="round" stroke-linejoin="round"/>
<path d="M82.3457 82.8173C82.3457 82.8173 83.1557 82.2248 84.3407 82.8173" stroke="#263238" stroke-linecap="round" stroke-linejoin="round"/>
<path d="M86.0118 82.9245C86.0118 82.9245 86.9825 82.0609 88.0068 82.7637" stroke="#263238" stroke-linecap="round" stroke-linejoin="round"/>
<path d="M82.1838 81.522C82.1838 81.522 82.6156 80.7151 84.0748 81.0933" stroke="#263238" stroke-linecap="round" stroke-linejoin="round"/>
<path d="M86.0118 81.1469C86.3419 80.9061 86.7489 80.7948 87.1556 80.8344C87.5623 80.8739 87.9404 81.0614 88.2179 81.3612" stroke="#263238" stroke-linecap="round" stroke-linejoin="round"/>
<path d="M85.8499 84.702C85.8499 84.702 84.9864 85.2945 84.6113 84.702" stroke="#263238" stroke-linecap="round" stroke-linejoin="round"/>
<path d="M84.2869 85.9437C84.2869 85.9437 85.3648 86.3723 85.9037 85.8901" stroke="#263238" stroke-linecap="round" stroke-linejoin="round"/>
<path d="M66.0688 116.925C66.0688 116.925 68.5901 122.522 69.1921 123.65C69.7941 124.779 70.4937 127.99 70.5788 129.897C70.6639 131.804 70.5788 132.198 70.147 132.153C69.7153 132.109 69.5388 129.724 69.5388 129.333V128.728C69.5388 128.728 69.3213 130.981 68.9746 131.416C68.6279 131.851 68.1489 132.327 68.1079 132.068C68.0669 131.81 68.193 131.372 68.3664 130.723C68.4711 130.223 68.5008 129.711 68.4546 129.204C68.4546 129.204 68.193 130.417 67.5879 130.852C66.9828 131.287 66.3272 131.46 66.5447 131.113C66.7622 130.767 67.3263 130.376 67.4555 129.941C67.5449 129.543 67.5893 129.136 67.5879 128.728C67.5879 128.728 66.7622 130.07 66.4155 130.288C66.0688 130.505 66.0688 130.029 66.2863 129.812C66.5037 129.594 66.9796 128.119 66.9796 128.119C66.9796 128.119 66.8473 128.031 66.2421 126.689C65.637 125.346 65.2966 122.998 65.1138 122.087C64.931 121.176 64.5938 119.963 64.5938 119.963L61.2531 114.366C61.2531 114.366 60.9915 113.02 62.249 112.79C63.5065 112.56 66.0688 116.925 66.0688 116.925Z" fill="white"/>
<path opacity="0.15" d="M66.0688 116.925C66.0688 116.925 68.5901 122.522 69.1921 123.65C69.7941 124.779 70.4937 127.99 70.5788 129.897C70.6639 131.804 70.5788 132.198 70.147 132.153C69.7153 132.109 69.5388 129.724 69.5388 129.333V128.728C69.5388 128.728 69.3213 130.981 68.9746 131.416C68.6279 131.851 68.1489 132.327 68.1079 132.068C68.0669 131.81 68.193 131.372 68.3664 130.723C68.4711 130.223 68.5008 129.711 68.4546 129.204C68.4546 129.204 68.193 130.417 67.5879 130.852C66.9828 131.287 66.3272 131.46 66.5447 131.113C66.7622 130.767 67.3263 130.376 67.4555 129.941C67.5449 129.543 67.5893 129.136 67.5879 128.728C67.5879 128.728 66.7622 130.07 66.4155 130.288C66.0688 130.505 66.0688 130.029 66.2863 129.812C66.5037 129.594 66.9796 128.119 66.9796 128.119C66.9796 128.119 66.8473 128.031 66.2421 126.689C65.637 125.346 65.2966 122.998 65.1138 122.087C64.931 121.176 64.5938 119.963 64.5938 119.963L61.2531 114.366C61.2531 114.366 60.9915 113.02 62.249 112.79C63.5065 112.56 66.0688 116.925 66.0688 116.925Z" fill="black"/>
<path d="M66.0688 116.925C66.0688 116.925 68.5901 122.522 69.1921 123.65C69.7941 124.779 70.4937 127.99 70.5788 129.897C70.6639 131.804 70.5788 132.198 70.147 132.153C69.7153 132.109 69.5388 129.724 69.5388 129.333V128.728C69.5388 128.728 69.3213 130.981 68.9746 131.416C68.6279 131.851 68.1489 132.327 68.1079 132.068C68.0669 131.81 68.193 131.372 68.3664 130.723C68.4711 130.223 68.5008 129.711 68.4546 129.204C68.4546 129.204 68.193 130.417 67.5879 130.852C66.9828 131.287 66.3272 131.46 66.5447 131.113C66.7622 130.767 67.3263 130.376 67.4555 129.941C67.5449 129.543 67.5893 129.136 67.5879 128.728C67.5879 128.728 66.7622 130.07 66.4155 130.288C66.0688 130.505 66.0688 130.029 66.2863 129.812C66.5037 129.594 66.9796 128.119 66.9796 128.119C66.9796 128.119 66.8473 128.031 66.2421 126.689C65.637 125.346 65.2966 122.998 65.1138 122.087C64.931 121.176 64.5938 119.963 64.5938 119.963L61.2531 114.366C61.2531 114.366 60.9915 113.02 62.249 112.79C63.5065 112.56 66.0688 116.925 66.0688 116.925Z" stroke="#263238" stroke-linecap="round" stroke-linejoin="round"/>
<path d="M69.207 125.299C69.207 125.299 69.6419 127.426 69.5978 128.378C69.5536 129.33 69.7711 129.812 69.4654 129.812C69.1597 129.812 69.0777 129.594 68.772 128.639C68.5708 127.931 68.4399 127.205 68.3812 126.471C68.3812 126.471 67.2971 126.471 66.9062 124.864" fill="white"/>
<path opacity="0.15" d="M69.2089 125.299C69.2089 125.299 69.6438 127.426 69.5997 128.378C69.5556 129.33 69.7731 129.812 69.4674 129.812C69.1616 129.812 69.0797 129.594 68.774 128.639C68.5727 127.931 68.4418 127.205 68.3832 126.471C68.3832 126.471 67.299 126.471 66.9082 124.864" fill="black"/>
<path d="M69.207 125.299C69.207 125.299 69.6419 127.426 69.5978 128.378C69.5536 129.33 69.7711 129.812 69.4654 129.812C69.1597 129.812 69.0777 129.594 68.772 128.639C68.5708 127.931 68.4399 127.205 68.3812 126.471C68.3812 126.471 67.2971 126.471 66.9062 124.864" stroke="#263238" stroke-linecap="round" stroke-linejoin="round"/>
<path d="M49.8389 138.12H65.8115C65.8903 135.132 66.4135 115.617 66.5711 114.744C66.7444 113.798 67.6017 104.879 67.6868 101.365C67.7719 97.8507 66.2276 92.786 66.2276 92.4425C66.2276 92.099 65.9723 89.9558 63.5707 88.1531C61.1691 86.3503 59.2813 86.3535 58.7676 86.6088C58.7676 86.6088 56.8766 87.8978 53.8762 91.0715C50.8758 94.2452 49.8452 96.817 49.8452 101.705C49.8475 104.664 50.1059 107.616 50.6174 110.53C50.6174 110.53 49.6719 125.797 49.6719 126.14C49.6719 126.484 49.8106 136.08 49.8389 138.12Z" fill="white" stroke="#263238" stroke-linecap="round" stroke-linejoin="round"/>
<path d="M57.0856 103.609C57.4247 103.608 57.7634 103.589 58.1004 103.552C61.7753 103.152 64.9711 99.395 67.0795 96.1488C66.9818 95.6792 66.8841 95.2285 66.7864 94.8157C64.7977 98.0587 61.583 102.222 57.9996 102.613C53.0105 103.155 50.7508 99.2248 50.1204 97.9547C50.0322 98.4401 49.966 98.9507 49.9219 99.4896C51.0376 101.179 53.291 103.609 57.0856 103.609Z" fill="#263238"/>
<path d="M55.8887 96.0259L56.8027 96.2686C57.7447 92.8384 59.5959 89.7263 62.1605 87.2612C61.8551 87.1002 61.5393 86.9602 61.215 86.842C58.6634 89.3821 56.8262 92.5497 55.8887 96.0259Z" fill="#263238"/>
<path d="M56.788 100.549C57.0023 100.438 61.4682 98.1123 66.1831 92.0391C66.1099 91.6584 65.9936 91.2872 65.8364 90.9329C61.09 97.2362 56.4098 99.6756 56.3594 99.7008L56.788 100.549Z" fill="#263238"/>
<path d="M52.1285 97.129L53.074 96.9872C53.074 96.962 52.7998 94.7274 54.9997 89.9306C54.6467 90.2804 54.2779 90.6586 53.8871 91.0715C53.635 91.3362 53.4018 91.5978 53.178 91.8594C51.889 95.3578 52.1159 97.0345 52.1285 97.129Z" fill="#263238"/>
<path d="M59.9238 111.138C54.4904 111.844 51.7295 110.703 50.494 109.827C50.5665 110.287 50.617 110.542 50.617 110.542C50.617 110.542 50.617 110.71 50.5886 111.012C51.7988 111.677 53.7403 112.307 56.7123 112.307C57.8276 112.303 58.9414 112.226 60.0467 112.077C62.5513 111.755 64.9588 110.904 67.1096 109.581C67.1474 109.184 67.1821 108.778 67.2168 108.365C65.0366 109.848 62.5385 110.798 59.9238 111.138Z" fill="#263238"/>
<path d="M59.6423 116.956C62.14 116.321 64.5179 115.284 66.6831 113.886C66.721 113.546 66.7651 113.13 66.8155 112.654C64.5663 114.207 62.0614 115.352 59.4154 116.036C55.7563 116.934 52.2044 115.932 50.3292 115.21C50.3103 115.525 50.2882 115.866 50.2693 116.206C52.2129 116.937 54.2694 117.322 56.3457 117.344C57.4561 117.346 58.5628 117.216 59.6423 116.956Z" fill="#263238"/>
<path d="M49.8458 123.133C49.8237 123.474 49.8048 123.795 49.7891 124.079C52.2256 124.664 54.7213 124.967 57.227 124.983C60.308 125.017 63.3672 124.463 66.2407 123.351C66.2407 123.004 66.2628 122.658 66.2723 122.32C59.9437 124.983 53.1739 123.943 49.8458 123.133Z" fill="#263238"/>
<path d="M60.3355 120.013C56.9437 120.835 53.3929 120.727 50.0579 119.698C50.039 120.029 50.017 120.357 49.998 120.681C51.8362 121.243 53.749 121.523 55.671 121.51C57.3164 121.508 58.9563 121.32 60.5593 120.949C62.5904 120.479 64.5522 119.748 66.3961 118.775C66.3961 118.384 66.4245 118.012 66.4371 117.665C64.5239 118.731 62.4698 119.522 60.3355 120.013Z" fill="#263238"/>
<path d="M57.688 106.704C53.8115 106.899 51.3059 105.468 49.916 104.29C49.9381 104.725 49.9664 105.147 49.998 105.55C52.039 106.979 54.4818 107.721 56.9726 107.668C57.2216 107.668 57.4769 107.668 57.7353 107.649C61.5394 107.457 64.9053 105.793 67.6252 102.843C67.6567 102.291 67.6788 101.787 67.6882 101.368V101.305C65.4663 104.063 62.2422 106.471 57.688 106.704Z" fill="#263238"/>
<path d="M64.1255 88.6133C63.9522 88.4588 63.7725 88.2981 63.5708 88.1531C61.1693 86.3535 59.2814 86.3535 58.7677 86.6088C57.7667 87.3414 56.8189 88.1439 55.9312 89.0104C55.841 89.3971 55.8408 89.7993 55.9304 90.1861C56.02 90.5729 56.1971 90.9341 56.4481 91.2417C58.0775 93.2998 63.3817 101.192 64.7685 99.477C66.1552 97.7625 65.7959 93.0445 64.2516 88.9253C64.2138 88.8181 64.1634 88.7141 64.1255 88.6133Z" fill="#5A2AD1" stroke="#263238" stroke-linecap="round" stroke-linejoin="round"/>
<path d="M59.1209 97.6743C59.1209 97.6743 63.7539 107.539 64.6962 109.083C65.1115 109.817 65.6004 110.507 66.1554 111.141C66.1554 111.141 70.2526 112.519 73.7667 113.808C77.2808 115.097 83.3887 116.789 84.6715 117.145C85.9542 117.501 88.1005 117.489 88.4535 117.489C88.8064 117.489 92.9131 118.434 93.181 118.604C93.4488 118.775 93.0959 119.118 92.4939 119.292C91.8919 119.465 89.9221 119.632 88.9766 119.975C88.0311 120.319 87.2621 120.234 85.8912 119.89C84.8107 119.558 83.7738 119.098 82.8025 118.519C82.8025 118.519 71.5479 117.735 68.8911 117.419C66.2342 117.104 63.2181 116.732 62.0299 115.361C59.6454 112.67 57.4448 109.82 55.4429 106.833C53.8293 104.394 50.8762 100.968 51.995 97.8634" fill="white"/>
<path d="M59.1209 97.6743C59.1209 97.6743 63.7539 107.539 64.6962 109.083C65.1115 109.817 65.6004 110.507 66.1554 111.141C66.1554 111.141 70.2526 112.519 73.7667 113.808C77.2808 115.097 83.3887 116.789 84.6715 117.145C85.9542 117.501 88.1005 117.489 88.4535 117.489C88.8064 117.489 92.9131 118.434 93.181 118.604C93.4488 118.775 93.0959 119.118 92.4939 119.292C91.8919 119.465 89.9221 119.632 88.9766 119.975C88.0311 120.319 87.2621 120.234 85.8912 119.89C84.8107 119.558 83.7738 119.098 82.8025 118.519C82.8025 118.519 71.5479 117.735 68.8911 117.419C66.2342 117.104 63.2181 116.732 62.0299 115.361C59.6454 112.67 57.4448 109.82 55.4429 106.833C53.8293 104.394 50.8762 100.968 51.995 97.8634" stroke="#263238" stroke-linecap="round" stroke-linejoin="round"/>
<path d="M88.4316 117.489C88.0881 117.489 85.9449 117.489 84.6496 117.145C83.3543 116.802 77.2463 115.093 73.7322 113.808C70.2181 112.522 66.121 111.141 66.121 111.141C65.566 110.507 65.077 109.817 64.6617 109.083C64.2741 108.453 63.2593 106.395 62.1971 104.204C58.7776 105.1 57.0568 106.726 56.209 107.986C58 110.548 59.935 113.006 62.0049 115.349C63.2057 116.72 66.2061 117.063 68.8661 117.407C71.5261 117.75 82.7617 118.522 82.7617 118.522C83.733 119.101 84.7699 119.561 85.8504 119.893C87.2213 120.237 87.9935 120.322 88.9359 119.979C89.8782 119.635 91.8543 119.465 92.4531 119.295C93.0519 119.124 93.3986 118.778 93.1402 118.608C92.8817 118.437 88.7877 117.489 88.4316 117.489Z" fill="white"/>
<path opacity="0.15" d="M88.4335 117.489C88.09 117.489 85.9469 117.489 84.6515 117.145C83.3562 116.802 77.2483 115.093 73.7342 113.808C70.2201 112.522 66.1229 111.141 66.1229 111.141C65.5679 110.507 65.079 109.817 64.6637 109.083C64.276 108.453 63.2612 106.395 62.1991 104.204C58.7795 105.1 57.0587 106.726 56.2109 107.986C58.0019 110.548 59.937 113.006 62.0068 115.349C63.2076 116.72 66.208 117.063 68.868 117.407C71.528 117.75 82.7637 118.522 82.7637 118.522C83.7349 119.101 84.7718 119.561 85.8523 119.893C87.2233 120.237 87.9955 120.322 88.9378 119.979C89.8802 119.635 91.8562 119.465 92.4551 119.295C93.0539 119.124 93.4006 118.778 93.1421 118.608C92.8837 118.437 88.7897 117.489 88.4335 117.489Z" fill="black"/>
<path d="M88.4316 117.489C88.0881 117.489 85.9449 117.489 84.6496 117.145C83.3543 116.802 77.2463 115.093 73.7322 113.808C70.2181 112.522 66.121 111.141 66.121 111.141C65.566 110.507 65.077 109.817 64.6617 109.083C64.2741 108.453 63.2593 106.395 62.1971 104.204C58.7776 105.1 57.0568 106.726 56.209 107.986C58 110.548 59.935 113.006 62.0049 115.349C63.2057 116.72 66.2061 117.063 68.8661 117.407C71.5261 117.75 82.7617 118.522 82.7617 118.522C83.733 119.101 84.7699 119.561 85.8504 119.893C87.2213 120.237 87.9935 120.322 88.9359 119.979C89.8782 119.635 91.8543 119.465 92.4531 119.295C93.0519 119.124 93.3986 118.778 93.1402 118.608C92.8817 118.437 88.7877 117.489 88.4316 117.489Z" stroke="#263238" stroke-linecap="round" stroke-linejoin="round"/>
<path d="M65.8121 138.12C65.85 136.632 66.0012 131.013 66.162 125.652C63.8899 126.539 61.5073 127.111 59.0802 127.354C54.0375 127.943 51.1317 126.723 49.6945 125.778C49.6945 125.989 49.6756 126.121 49.6756 126.15C49.6756 126.465 49.8112 136.077 49.8395 138.126L65.8121 138.12Z" fill="#5A2AD1" stroke="#263238" stroke-linecap="round" stroke-linejoin="round"/>
<path d="M61.7918 137.404C61.0102 134.438 62.9012 130.656 60.1719 128.693" stroke="#263238" stroke-linecap="round" stroke-linejoin="round"/>
<path d="M61.7949 130.581L65.3059 127.208" stroke="#263238" stroke-linecap="round" stroke-linejoin="round"/>
<path d="M52.992 130.603L52.9006 137.404" stroke="#263238" stroke-linecap="round" stroke-linejoin="round"/>
<path d="M53.0236 128.154L53.0078 129.396" stroke="#263238" stroke-linecap="round" stroke-linejoin="round"/>
<path d="M67.0945 72.7792C68.4895 73.149 69.7222 73.9716 70.5991 75.1178C71.1938 75.8788 71.597 76.7717 71.7747 77.7211C72.1938 80.2739 70.7567 81.0618 71.22 82.2216C71.6833 83.3814 72.1466 83.9834 71.7747 84.5413C71.4028 85.0991 70.2461 85.1905 70.0602 85.2378C69.8742 85.285 69.5023 87.4156 68.7617 88.3453C68.021 89.2751 65.4209 88.2066 65.4209 88.2066C65.4209 88.2066 64.3557 90.0157 64.031 90.6177C63.7064 91.2196 64.3462 94.8377 63.8892 96.4608C63.4322 98.084 62.3607 96.3222 60.3184 93.7725C58.2761 91.2228 57.3495 89.1332 57.4441 88.4367C57.5386 87.7402 59.1586 86.1171 59.4391 85.5151C59.7196 84.9132 59.8551 84.6327 59.7164 84.078C59.5777 83.5233 57.9546 81.2415 57.9546 78.3262C57.9546 75.4109 60.2711 72.6217 63.3345 72.3884C64.6009 72.3053 65.8722 72.4374 67.0945 72.7792Z" fill="white"/>
<path opacity="0.15" d="M67.0945 72.7792C68.4895 73.149 69.7222 73.9716 70.5991 75.1178C71.1938 75.8788 71.597 76.7717 71.7747 77.7211C72.1938 80.2739 70.7567 81.0618 71.22 82.2216C71.6833 83.3814 72.1466 83.9834 71.7747 84.5413C71.4028 85.0991 70.2461 85.1905 70.0602 85.2378C69.8742 85.285 69.5023 87.4156 68.7617 88.3453C68.021 89.2751 65.4209 88.2066 65.4209 88.2066C65.4209 88.2066 64.3557 90.0157 64.031 90.6177C63.7064 91.2196 64.3462 94.8377 63.8892 96.4608C63.4322 98.084 62.3607 96.3222 60.3184 93.7725C58.2761 91.2228 57.3495 89.1332 57.4441 88.4367C57.5386 87.7402 59.1586 86.1171 59.4391 85.5151C59.7196 84.9132 59.8551 84.6327 59.7164 84.078C59.5777 83.5233 57.9546 81.2415 57.9546 78.3262C57.9546 75.4109 60.2711 72.6217 63.3345 72.3884C64.6009 72.3053 65.8722 72.4374 67.0945 72.7792Z" fill="black"/>
<path d="M67.0945 72.7792C68.4895 73.149 69.7222 73.9716 70.5991 75.1178C71.1938 75.8788 71.597 76.7717 71.7747 77.7211C72.1938 80.2739 70.7567 81.0618 71.22 82.2216C71.6833 83.3814 72.1466 83.9834 71.7747 84.5413C71.4028 85.0991 70.2461 85.1905 70.0602 85.2378C69.8742 85.285 69.5023 87.4156 68.7617 88.3453C68.021 89.2751 65.4209 88.2066 65.4209 88.2066C65.4209 88.2066 64.3557 90.0157 64.031 90.6177C63.7064 91.2196 64.3462 94.8377 63.8892 96.4608C63.4322 98.084 62.3607 96.3222 60.3184 93.7725C58.2761 91.2228 57.3495 89.1332 57.4441 88.4367C57.5386 87.7402 59.1586 86.1171 59.4391 85.5151C59.7196 84.9132 59.8551 84.6327 59.7164 84.078C59.5777 83.5233 57.9546 81.2415 57.9546 78.3262C57.9546 75.4109 60.2711 72.6217 63.3345 72.3884C64.6009 72.3053 65.8722 72.4374 67.0945 72.7792Z" stroke="#263238" stroke-linecap="round" stroke-linejoin="round"/>
<path d="M67.6498 74.894C68.7655 74.3456 69.5566 74.3614 70.0734 74.5158C69.2524 73.6828 68.2245 73.0834 67.0951 72.7792C65.8729 72.4374 64.6016 72.3053 63.3352 72.3884C60.2718 72.6217 57.9553 75.4046 57.9553 78.3262C57.9553 81.2478 59.5784 83.5201 59.7171 84.078C59.7668 84.2617 59.7786 84.4537 59.7517 84.6421C61.9579 85.0802 62.6796 83.9771 62.6796 83.9771C62.4244 84.0092 62.1653 83.9888 61.9182 83.9173C61.671 83.8457 61.4411 83.7245 61.2425 83.5611C60.5901 83.0032 60.5901 80.8696 61.3811 79.8957C62.1722 78.9218 62.957 80.2676 62.957 81.0555C62.957 81.8434 63.3289 82.4927 63.7008 82.4013C64.0727 82.3099 63.9781 81.4274 64.1168 80.8696C64.2555 80.3117 65.8786 79.4797 66.2505 79.0164C66.6224 78.5531 66.0645 78.1339 65.4626 77.4406C64.8606 76.7472 65.3743 76.0066 67.6498 74.894Z" fill="#263238" stroke="#263238" stroke-linecap="round" stroke-linejoin="round"/>
<path d="M62.5859 84.1221C62.5859 84.1221 62.5859 85.4237 63.377 86.2557" stroke="#263238" stroke-linecap="round" stroke-linejoin="round"/>
<path d="M69.8094 81.7741C69.4168 81.6079 68.9885 81.5439 68.5645 81.5882" stroke="#263238" stroke-linecap="round" stroke-linejoin="round"/>
<path d="M70.4958 80.6552C70.4958 80.6552 69.8118 79.4734 68.5039 80.4062" stroke="#263238" stroke-linecap="round" stroke-linejoin="round"/>
<path d="M68.8919 85.8807C68.6076 85.9051 68.3235 85.8324 68.0859 85.6744C67.8483 85.5164 67.6714 85.2825 67.584 85.0109" stroke="#263238" stroke-linecap="round" stroke-linejoin="round"/>
<path d="M59.8928 99.3383L59.3003 98.0776C55.4899 98.1438 53.2586 99.5652 51.9979 100.914C52.1339 101.363 52.3046 101.8 52.5085 102.222C53.5012 100.933 55.6286 99.2469 59.8928 99.3383Z" fill="#263238"/>
<path d="M61.2147 102.109L60.6222 100.867C57.0829 101.056 54.7034 102.361 53.2441 103.558C53.4648 103.924 53.7011 104.283 53.9375 104.633C55.2833 103.499 57.625 102.175 61.2147 102.109Z" fill="#263238"/>
<path d="M102.24 110.53C102.637 111.718 102.901 115.944 102.901 118.192C102.901 120.064 101.704 133.679 101.307 138.119H119.214C119.429 133.786 120.069 120.763 120.069 119.115C120.069 117.133 119.407 109.011 120.267 106.171C121.128 103.331 122.114 95.8715 120.582 93.5644C119.051 91.2574 113.333 89.9337 111.603 89.3381C109.873 88.7424 107.311 88.4146 106.056 89.0229C106.056 89.0229 102.624 90.9391 100.509 92.9183C98.3946 94.8976 97.4743 97.9389 97.8683 100.381C98.2622 102.824 101.843 109.342 102.24 110.53Z" fill="white" stroke="#263238" stroke-linecap="round" stroke-linejoin="round"/>
<path d="M117.798 91.4844C117.026 91.1279 116.236 90.8123 115.431 90.5389C112.516 97.9751 107.93 104.641 102.027 110.022C102.125 110.24 102.198 110.416 102.238 110.536C102.437 111.309 102.566 112.098 102.623 112.894C109.366 107.115 114.579 99.7608 117.798 91.4844Z" fill="#263238"/>
<path d="M121.289 100.085C121.444 98.5114 121.414 96.9248 121.201 95.3578C117.523 101.57 111.163 111.044 102.893 118.459C102.871 119.112 102.789 120.385 102.666 121.999C110.715 115.336 117.082 106.723 121.289 100.085Z" fill="#263238"/>
<path d="M119.212 138.12C119.364 135.034 119.732 127.549 119.931 122.894C111.217 124.561 105.09 122.976 102.657 122.122C102.285 127.029 101.588 134.933 101.305 138.12H119.212Z" fill="#263238" stroke="#263238" stroke-linecap="round" stroke-linejoin="round"/>
<path d="M108.311 96.8832C110.702 96.8832 112.641 95.0079 112.641 92.6947C112.641 90.3814 110.702 88.5061 108.311 88.5061C105.919 88.5061 103.98 90.3814 103.98 92.6947C103.98 95.0079 105.919 96.8832 108.311 96.8832Z" fill="#5A2AD1" stroke="#263238" stroke-linecap="round" stroke-linejoin="round"/>
<path d="M104.354 87.4188C104.354 87.4188 105.078 89.9937 105.078 91.5159C105.078 93.0382 106.73 96.5365 109.437 94.9512C112.144 93.3659 110.758 89.7352 110.294 88.6101C109.966 87.7505 109.701 86.8677 109.503 85.969C109.503 85.969 108.643 87.5448 106.982 87.6205C106.101 87.673 105.216 87.6052 104.354 87.4188Z" fill="white" stroke="#263238" stroke-linecap="round" stroke-linejoin="round"/>
<path d="M99.8861 78.0709C99.8861 78.0709 99.4291 79.2087 99.9996 80.1195C100.57 81.0303 101.352 82.2784 101.352 82.2784L101.238 77.2767C101.238 77.2767 100.113 76.3659 99.8861 78.0709Z" fill="#263238" stroke="#263238" stroke-linecap="round" stroke-linejoin="round"/>
<path d="M101.353 81.1406C101.353 81.1406 100.442 81.4842 100.896 82.9591C101.35 84.4341 102.034 83.9834 102.034 83.9834L101.353 81.1406Z" fill="white" stroke="#263238" stroke-linecap="round" stroke-linejoin="round"/>
<path d="M100.521 78.572C100.521 78.572 101.315 82.6692 101.782 84.7115C102.248 86.7538 104.754 88.6069 106.074 89.004C107.395 89.4011 109.112 87.9482 109.509 87.091C109.907 86.2337 110.102 84.3175 110.102 84.3175C110.102 84.3175 111.555 83.7219 111.678 82.2028C111.801 80.6836 111.413 80.2235 110.622 80.025L110.026 79.7602C110.026 79.7602 110.357 77.3177 109.5 75.7986C108.643 74.2795 105.604 76.2619 104.019 76.722C102.434 77.1822 100.322 77.0529 100.521 78.572Z" fill="white" stroke="#263238" stroke-linecap="round" stroke-linejoin="round"/>
<path d="M104.353 81.5441C104.353 81.5441 104.037 83.9204 104.482 84.119C104.926 84.3175 105.802 83.8542 106.001 83.788" stroke="#263238" stroke-linecap="round" stroke-linejoin="round"/>
<path d="M105.609 85.5876C105.609 85.5876 107.456 85.8524 108.184 83.7376" stroke="#263238" stroke-linecap="round" stroke-linejoin="round"/>
<path d="M102.105 81.0145C102.253 80.7867 102.46 80.6044 102.705 80.4881C102.95 80.3717 103.223 80.3259 103.492 80.3558" stroke="#263238" stroke-linecap="round" stroke-linejoin="round"/>
<path d="M105.277 80.025C105.277 80.025 106.598 79.3631 107.389 80.0912" stroke="#263238" stroke-linecap="round" stroke-linejoin="round"/>
<path d="M103.336 82.7292C103.516 82.6979 103.611 82.3806 103.549 82.0205C103.486 81.6604 103.289 81.3938 103.109 81.4251C102.929 81.4564 102.834 81.7737 102.897 82.1338C102.959 82.494 103.156 82.7605 103.336 82.7292Z" fill="#263238"/>
<path d="M106.242 82.1364C106.422 82.1051 106.517 81.7878 106.455 81.4277C106.392 81.0675 106.195 80.801 106.015 80.8322C105.835 80.8635 105.74 81.1809 105.803 81.541C105.865 81.9011 106.062 82.1677 106.242 82.1364Z" fill="#263238"/>
<path d="M108.049 76.7882C106.297 77.6107 104.459 78.2364 102.569 78.6539C99.6628 79.2465 98.3423 78.5878 98.4715 77.1348C98.6007 75.6819 102.367 72.5114 105.799 72.5114C109.231 72.5114 110.423 74.0872 110.621 75.7481C110.729 77.1769 110.729 78.6119 110.621 80.0407L110.026 80.8979C110.026 80.8979 110.177 80.2298 109.231 79.694C108.286 79.1582 107.586 78.1749 108.049 76.7882Z" fill="#263238" stroke="#263238" stroke-linecap="round" stroke-linejoin="round"/>
<path d="M126.428 81.5094C127.074 82.0042 126.314 84.0717 128.445 85.7295C133.349 89.543 136.185 92.1242 136.709 97.7909C137.282 103.968 133.964 106.37 134.994 108.428C136.025 110.486 137.396 112.887 135.221 114.731C133.046 116.575 129.504 118.163 126.532 113.817C123.56 109.471 121.956 99.8647 120.698 94.5919C119.441 89.3192 117.383 86.8168 117.723 84.5287C118.057 82.3225 119.857 80.7467 122.009 80.3653C122.785 80.2298 123.58 80.2618 124.342 80.4591C125.105 80.6565 125.816 81.0146 126.428 81.5094Z" fill="#263238" stroke="#263238" stroke-linecap="round" stroke-linejoin="round"/>
<path d="M120.523 103.467L111.358 110.171C111.358 110.171 96.6809 115.415 95.8173 115.683C94.9538 115.951 90.8377 116.679 89.9742 117.142C89.1106 117.605 87.4528 120.662 87.1849 121.394C87.1292 121.496 87.1081 121.613 87.1246 121.729C87.1412 121.844 87.1947 121.95 87.277 122.033C87.3593 122.115 87.466 122.169 87.5812 122.185C87.6964 122.202 87.8139 122.181 87.9161 122.125C88.1147 121.923 90.0403 120.064 90.6392 119.997C91.238 119.931 91.7675 119.865 91.7675 119.865C91.7675 119.865 90.2389 121.195 90.1727 121.592C90.1065 121.989 90.4406 121.857 90.8377 121.658C91.2348 121.46 92.7634 120.927 93.359 119.865C93.9547 118.803 94.4873 118.204 95.4833 117.807C96.4792 117.41 109.477 114.592 111.803 114.195C114.128 113.798 122.496 108.771 122.896 108.705C123.297 108.639 121.787 103.467 120.523 103.467Z" fill="white" stroke="#263238" stroke-linecap="round" stroke-linejoin="round"/>
<path d="M118.73 112.04C118.812 112.285 118.566 115.743 118.399 121.753C118.273 126.364 117.18 134.558 116.675 138.12H134.195C134.321 134.508 134.479 126.247 133.464 122.821C132.147 118.378 130.666 117.464 130.174 115.497C129.682 113.53 128.938 102.654 127.703 98.5378C126.468 94.4217 122.764 91.9508 122.188 91.0463C121.611 90.1418 119.799 84.8722 119.799 84.8722L116.672 87.507C116.672 87.507 118.976 91.2102 119.307 92.3637C119.638 93.5172 117.082 96.2308 115.768 99.0326C114.453 101.834 114.192 104.053 115.355 105.78C116.518 107.507 118.648 111.791 118.73 112.04Z" fill="#5A2AD1"/>
<path d="M121.409 128.955L124.28 129.585L127.151 128.955L130.022 129.585L132.893 128.955L134.223 129.244L134.195 128.595L132.893 128.308L130.022 128.939L127.151 128.308L124.28 128.939L121.409 128.308L118.541 128.939L117.851 128.787C117.829 128.999 117.806 129.207 117.781 129.418L118.541 129.585L121.409 128.955Z" fill="white"/>
<path d="M124.58 107.385L121.709 108.015L118.838 107.385L116.594 107.876L116.909 108.453L118.841 108.031L121.712 108.661L124.583 108.031L127.454 108.661L129.27 108.261C129.245 108.053 129.222 107.842 129.197 107.63L127.454 108.015L124.58 107.385Z" fill="white"/>
<path d="M121.408 133.754L124.28 134.385L127.151 133.754L130.022 134.385L132.893 133.754L134.283 134.07C134.283 133.858 134.283 133.644 134.283 133.439L132.89 133.124L130.019 133.754L127.148 133.124L124.276 133.754L121.405 133.124L118.537 133.754L117.296 133.48C117.27 133.695 117.242 133.903 117.217 134.111L118.537 134.401L121.408 133.754Z" fill="white"/>
<path d="M134.257 135.813L132.892 135.513L130.021 136.143L127.15 135.513L124.279 136.143L121.408 135.513L118.54 136.143L116.992 135.803C116.964 136.017 116.935 136.229 116.91 136.433L118.54 136.79L121.408 136.159L124.279 136.79L127.15 136.159L130.021 136.79L132.892 136.159L134.244 136.459C134.247 136.247 134.254 136.033 134.257 135.813Z" fill="white"/>
<path d="M114.924 101.229L115.964 101.456L118.835 100.826L121.706 101.456L124.577 100.826L127.449 101.456L128.309 101.267C128.271 101.056 128.233 100.848 128.195 100.637L127.449 100.801L124.577 100.17L121.706 100.801L118.835 100.17L115.964 100.801L115.113 100.615C115.044 100.827 114.981 101.032 114.924 101.229Z" fill="white"/>
<path d="M124.578 102.581L121.707 103.212L118.836 102.581L115.965 103.212L114.629 102.919C114.616 103.134 114.616 103.349 114.629 103.565L115.965 103.858L118.836 103.227L121.707 103.858L124.578 103.227L127.45 103.858L128.679 103.587C128.647 103.376 128.619 103.168 128.587 102.956L127.45 103.205L124.578 102.581Z" fill="white"/>
<path d="M124.577 104.983L121.706 105.613L118.835 104.983L115.964 105.613L115.145 105.434C115.208 105.55 115.277 105.667 115.353 105.78C115.428 105.894 115.52 106.036 115.608 106.181L115.964 106.259L118.835 105.629L121.706 106.259L124.577 105.629L127.449 106.259L128.987 105.922C128.961 105.711 128.933 105.503 128.908 105.292L127.449 105.607L124.577 104.983Z" fill="white"/>
<path d="M121.407 131.356L124.278 131.986L127.149 131.356L130.021 131.986L132.892 131.356L134.278 131.671V131.025L132.901 130.71L130.03 131.34L127.159 130.71L124.288 131.34L121.417 130.71L118.548 131.34L117.603 131.129L117.527 131.759L118.558 131.986L121.407 131.356Z" fill="white"/>
<path d="M118.73 112.04C118.812 112.285 118.566 115.743 118.399 121.753C118.273 126.364 117.18 134.558 116.675 138.12H134.195C134.321 134.508 134.479 126.247 133.464 122.821C132.147 118.378 130.666 117.464 130.174 115.497C129.682 113.53 128.938 102.654 127.703 98.5378C126.468 94.4217 122.764 91.9508 122.188 91.0463C121.611 90.1418 119.799 84.8722 119.799 84.8722L116.672 87.507C116.672 87.507 118.976 91.2102 119.307 92.3637C119.638 93.5172 117.082 96.2308 115.768 99.0326C114.453 101.834 114.192 104.053 115.355 105.78C116.518 107.507 118.648 111.791 118.73 112.04Z" stroke="#263238" stroke-linecap="round" stroke-linejoin="round"/>
<path d="M116.67 106.723C116.67 106.723 117.729 108.844 121.265 108.018" stroke="#263238" stroke-linecap="round" stroke-linejoin="round"/>
<path d="M126.33 120.388C126.33 120.388 121.029 126.868 118.672 132.049" stroke="#263238" stroke-linecap="round" stroke-linejoin="round"/>
<path d="M120.676 125.693C120.676 125.693 118.436 129.815 117.84 132.406" stroke="#263238" stroke-linecap="round" stroke-linejoin="round"/>
<path d="M117.682 98.3928C119.394 97.4473 121.578 93.3502 122.529 92.5938L123.179 92.0737C122.816 91.7644 122.485 91.4203 122.189 91.0463C121.612 90.1418 119.8 84.8722 119.8 84.8722L116.674 87.507C116.674 87.507 118.978 91.2102 119.308 92.3637C119.598 93.3817 117.641 95.6225 116.273 98.0588C116.434 98.5094 116.812 98.875 117.682 98.3928Z" fill="white" stroke="#263238" stroke-linecap="round" stroke-linejoin="round"/>
<path d="M113.912 78.5342C113.547 79.3994 113.364 80.3308 113.376 81.2698C113.433 82.1019 113.612 82.7606 113.278 83.5831C113.083 84.0559 112.421 84.6579 112.513 85.2031C112.594 85.6948 113.83 85.8618 113.83 85.8618C113.83 85.8618 115.065 89.7289 115.721 89.8108C116.376 89.8928 117.861 89.4957 119.752 87.9198C121.643 86.344 119.342 80.671 117.694 79.1929C116.046 77.7147 114.734 77.5446 113.912 78.5342Z" fill="white" stroke="#263238" stroke-linecap="round" stroke-linejoin="round"/>
<path d="M114.474 83.6935C114.592 83.6935 114.688 83.4225 114.688 83.0883C114.688 82.7541 114.592 82.4832 114.474 82.4832C114.356 82.4832 114.26 82.7541 114.26 83.0883C114.26 83.4225 114.356 83.6935 114.474 83.6935Z" fill="#263238"/>
<path d="M113.902 81.6985C113.902 81.6985 114.117 80.8412 114.974 81.4842" stroke="#263238" stroke-linecap="round" stroke-linejoin="round"/>
<path d="M114.33 86.6907C114.33 86.6907 114.901 86.8357 115.543 86.0604" stroke="#263238" stroke-linecap="round" stroke-linejoin="round"/>
<path d="M115.726 74.1691C115.726 74.1691 112.678 74.2542 112.183 76.2272C111.689 78.2001 113.914 79.9335 115.477 80.7561C117.04 81.5787 118.439 82.8961 118.439 84.2954C118.439 85.6948 118.525 87.3431 119.675 88.8244C120.825 90.3057 123.457 91.5411 125.521 91.4592C127.586 91.3772 125.357 86.5331 126.508 83.0663C127.658 79.5995 126.193 76.1515 123.873 74.6703C121.553 73.189 115.726 74.1691 115.726 74.1691Z" fill="#263238" stroke="#263238" stroke-linecap="round" stroke-linejoin="round"/>
<path d="M134.331 104.06C134.303 104.491 134.236 104.92 134.129 105.339" stroke="white" stroke-linecap="round" stroke-linejoin="round"/>
<path d="M115.025 79.2843C115.593 80.2298 116.667 81.2383 118.687 81.8056C123.1 83.0663 124.78 86.114 124.78 88.7393C124.78 91.3646 124.991 93.2556 129.192 95.3578C130.431 95.9772 131.516 96.864 132.37 97.9541C133.224 99.0441 133.826 100.31 134.131 101.661" stroke="white" stroke-linecap="round" stroke-linejoin="round"/>
<path d="M114.379 77.1821C114.38 77.3651 114.398 77.5477 114.432 77.7274" stroke="white" stroke-linecap="round" stroke-linejoin="round"/>
<path d="M120.262 77.1821C120.262 77.1821 125.515 79.8106 125.408 83.3814C125.301 86.9523 125.619 90.3151 128.875 92.3101C132.131 94.3051 135.494 95.5689 136.65 99.5589" stroke="white" stroke-linecap="round" stroke-linejoin="round"/>
<path d="M123.194 96.3033C123.194 96.3033 121.798 96.8328 121.07 99.5558C120.342 102.279 123.326 107.06 123.793 109.187C124.259 111.315 124.722 114.564 124.722 114.564C124.722 114.564 114.293 123.073 112.768 124.394C111.243 125.715 110.442 126.584 110.442 126.584C110.442 126.584 106.66 129.906 106.326 130.571C105.992 131.236 105.065 134.687 105.396 134.82C105.727 134.952 106.326 133.493 106.326 133.228C106.326 132.963 106.988 131.501 106.988 131.501C106.988 131.501 106.458 134.88 106.458 135.069C106.458 135.258 106.988 135.069 107.054 134.801C107.12 134.533 107.851 131.747 107.851 131.747C107.851 131.747 107.454 134.867 107.719 135.214C107.984 135.56 108.45 133.222 108.45 133.222L108.98 131.362C108.98 131.362 108.847 134.615 109.115 134.747C109.383 134.88 109.979 131.561 109.979 131.561C109.979 131.561 111.173 129.169 111.637 128.371C111.901 127.938 112.102 127.469 112.235 126.978C112.235 126.978 118.413 123.59 122.264 121.731C126.115 119.871 129.371 116.417 129.768 115.822C130.165 115.226 129.302 106.855 128.64 103.268C127.978 99.6819 126.582 95.3578 123.194 96.3033Z" fill="white" stroke="#263238" stroke-linecap="round" stroke-linejoin="round"/>
<path d="M101.616 92.0233C101.616 92.0233 99.2395 93.6401 97.339 95.175C95.4386 96.7098 95.7222 99.7386 95.7222 100.404C95.7222 101.069 95.6277 104.11 95.6277 104.11L94.2 107.151C94.2 107.151 92.0159 109.149 91.54 109.625C91.0641 110.101 88.3095 115.516 88.3095 115.516L87.6445 116.461L91.2658 116.928C92.6178 115.42 94.1135 114.048 95.7317 112.831C98.0986 111.116 100.09 106.389 100.188 105.806C100.59 104.213 100.873 102.593 101.036 100.958" fill="white"/>
<path d="M101.616 92.0233C101.616 92.0233 99.2395 93.6401 97.339 95.175C95.4386 96.7098 95.7222 99.7386 95.7222 100.404C95.7222 101.069 95.6277 104.11 95.6277 104.11L94.2 107.151C94.2 107.151 92.0159 109.149 91.54 109.625C91.0641 110.101 88.3095 115.516 88.3095 115.516L87.6445 116.461L91.2658 116.928C92.6178 115.42 94.1135 114.048 95.7317 112.831C98.0986 111.116 100.09 106.389 100.188 105.806C100.59 104.213 100.873 102.593 101.036 100.958" stroke="#263238" stroke-linecap="round" stroke-linejoin="round"/>
<path d="M100.407 104.791C98.8086 102.169 96.6245 102.509 95.6538 102.837C95.6317 103.53 95.616 104.097 95.616 104.097L94.1883 107.139C94.1883 107.139 92.0042 109.137 91.5283 109.613C91.0524 110.089 88.2978 115.503 88.2978 115.503L87.6328 116.449L91.2667 116.928C92.6187 115.42 94.1144 114.048 95.7326 112.831C98.0995 111.116 100.091 106.389 100.189 105.806C100.224 105.613 100.312 105.26 100.407 104.791Z" fill="white" stroke="#263238" stroke-linecap="round" stroke-linejoin="round"/>
<path d="M89.6665 114.268C89.6665 114.268 87.3059 116.197 86.83 116.808C86.3541 117.419 85.9823 121.015 86.1714 121.277C86.3604 121.539 87.681 122.241 88.2483 121.627C88.8156 121.012 90.8925 118.05 90.8925 118.05C90.8925 118.05 89.3167 120.18 90.4419 120.06C91.567 119.941 92.2131 118.207 92.8749 117.419C93.5368 116.631 93.4422 116.543 92.8749 115.405L92.3108 114.268" fill="white"/>
<path d="M89.6665 114.268C89.6665 114.268 87.3059 116.197 86.83 116.808C86.3541 117.419 85.9823 121.015 86.1714 121.277C86.3604 121.539 87.681 122.241 88.2483 121.627C88.8156 121.012 90.8925 118.05 90.8925 118.05C90.8925 118.05 89.3167 120.18 90.4419 120.06C91.567 119.941 92.2131 118.207 92.8749 117.419C93.5368 116.631 93.4422 116.543 92.8749 115.405L92.3108 114.268" stroke="#263238" stroke-linecap="round" stroke-linejoin="round"/>
<path d="M86.1738 121.274C86.1738 121.274 87.3746 117.177 87.8537 116.862" stroke="#263238" stroke-linecap="round" stroke-linejoin="round"/>
<path d="M86.7384 121.573C86.7384 121.573 88.1315 117.722 88.85 116.925" stroke="#263238" stroke-linecap="round" stroke-linejoin="round"/>
<path d="M87.4863 121.847C87.4863 121.847 88.996 118.065 89.9856 117.148" stroke="#263238" stroke-linecap="round" stroke-linejoin="round"/>
<path d="M90.8926 118.05C90.8926 118.05 91.6963 117.337 91.8192 116.909L90.8926 118.05Z" fill="white"/>
<path d="M90.8926 118.05C90.8926 118.05 91.6963 117.337 91.8192 116.909" stroke="#263238" stroke-linecap="round" stroke-linejoin="round"/>
<path d="M32.7285 138.12H150.676" stroke="#263238" stroke-linecap="round" stroke-linejoin="round"/>
<defs>
<filter id="filter0_f_338_332" x="0.0332031" y="0.132202" width="184.387" height="184.387" filterUnits="userSpaceOnUse" color-interpolation-filters="sRGB">
<feFlood flood-opacity="0" result="BackgroundImageFix"/>
<feBlend mode="normal" in="SourceGraphic" in2="BackgroundImageFix" result="shape"/>
<feGaussianBlur stdDeviation="18.5" result="effect1_foregroundBlur_338_332"/>
</filter>
</defs>
</svg>
