<svg width="186" height="186" viewBox="0 0 186 186" fill="none" xmlns="http://www.w3.org/2000/svg">
<g opacity="0.5" filter="url(#filter0_f_1_2048)">
<circle cx="93.1643" cy="93.1192" r="55.1936" fill="#5B2AD1"/>
</g>
<path opacity="0.7" d="M45.2125 75.4805C45.2125 75.4805 38.9116 91.6085 47.7663 107.848C56.621 124.088 74.8592 132.668 89.4565 140.004C104.054 147.34 119.212 143.767 126.414 131.752C133.617 119.736 123.738 111.159 123.725 94.0254C123.711 76.8917 126.313 72.3557 116.945 57.8808C107.577 43.4059 84.6133 40.2005 67.2475 50.9368C49.8817 61.6731 45.2125 75.4805 45.2125 75.4805Z" fill="white" fill-opacity="0.2"/>
<path d="M47.2785 75.3371C53.7918 63.4516 70.1768 49.5771 92.6548 55.3563C115.133 61.1355 130.32 73.3614 127.832 94.6324C125.343 115.903 112.267 133.577 84.1007 134.095C55.9343 134.612 32.9953 101.399 47.2785 75.3371Z" fill="#D214E6" fill-opacity="0.5"/>
<path d="M129.1 91.4112L114.44 93.6606C113.88 93.7465 113.496 94.2661 113.583 94.8211L114.965 103.671C115.052 104.226 115.576 104.607 116.136 104.521L130.796 102.271C131.356 102.185 131.74 101.666 131.653 101.111L130.271 92.2606C130.184 91.7055 129.66 91.3253 129.1 91.4112Z" stroke="white" stroke-linecap="round" stroke-linejoin="round"/>
<path d="M113.807 96.2498L130.494 93.6895" stroke="white" stroke-linecap="round" stroke-linejoin="round"/>
<path d="M129.19 96.5927L126.494 97.0063L127.095 100.854L129.791 100.44L129.19 96.5927Z" stroke="white" stroke-linecap="round" stroke-linejoin="round"/>
<path d="M127.588 97.6363C128.158 96.9643 129.093 97.4123 128.874 99.4977L129.708 99.9076L129.789 100.432L127.095 100.846L126.985 100.145L128.002 99.7531C128.002 99.7531 127.052 98.2702 127.588 97.6363Z" stroke="white" stroke-linecap="round" stroke-linejoin="round"/>
<path d="M121.742 102.34C121.742 102.34 123.69 102.356 123.132 101.971C122.574 101.585 122.49 101.196 122.965 101.189C123.439 101.182 124.235 102.085 124.172 101.534C124.108 100.983 124.452 101.341 124.517 101.377C124.583 101.413 125.146 101.189 125.173 101.254C125.2 101.319 125.162 101.5 126.994 101.22" stroke="white" stroke-linecap="round" stroke-linejoin="round"/>
<path d="M115.221 97.9678L123.393 96.7134" stroke="white" stroke-linecap="round" stroke-linejoin="round"/>
<path d="M115.365 98.8862L120.179 98.147" stroke="white" stroke-linecap="round" stroke-linejoin="round"/>
<path d="M115.619 100.506L122.334 99.4753" stroke="white" stroke-linecap="round" stroke-linejoin="round"/>
<path d="M117.703 94.4488L125.898 93.1899" stroke="white" stroke-linecap="round" stroke-linejoin="round"/>
<path d="M39.6582 88.7749L57.98 85.1483L64.3781 115.594L44.9037 119.734L39.6582 88.7749Z" stroke="white" stroke-linecap="round" stroke-linejoin="round"/>
<path d="M44.166 115.391L63.602 111.903" stroke="white" stroke-linecap="round" stroke-linejoin="round"/>
<path d="M61.2994 109.313L52.0176 111.011" stroke="white" stroke-linecap="round" stroke-linejoin="round"/>
<path d="M59.9229 107.786L57.2109 108.182" stroke="white" stroke-linecap="round" stroke-linejoin="round"/>
<path d="M60.3382 104.677L46.4844 107.253" stroke="white" stroke-linecap="round" stroke-linejoin="round"/>
<path d="M42.0547 102.918L61.0183 99.6008" stroke="white" stroke-linecap="round" stroke-linejoin="round" stroke-dasharray="1 2"/>
<path d="M62.2048 114.609L50.6855 117.001" stroke="white" stroke-linecap="round" stroke-linejoin="round"/>
<path d="M61.8605 113.646L56.4455 114.609" stroke="white" stroke-linecap="round" stroke-linejoin="round"/>
<path d="M58.9324 97.5938L49.4336 99.4597" stroke="white" stroke-linecap="round" stroke-linejoin="round"/>
<path d="M58.1804 95.5038L55.1543 96.093" stroke="white" stroke-linecap="round" stroke-linejoin="round"/>
<path d="M58.0017 94.0523L44.166 96.6955" stroke="white" stroke-linecap="round" stroke-linejoin="round"/>
<path d="M56.7455 86.9874L53.0098 87.7534" stroke="white" stroke-linecap="round" stroke-linejoin="round"/>
<path d="M44.1661 89.6194L40.9434 90.2399" stroke="white" stroke-linecap="round" stroke-linejoin="round"/>
<path d="M42.1171 92.0005C42.1843 91.7734 42.2997 91.5631 42.4557 91.3839C42.6116 91.2046 42.8044 91.0605 43.0211 90.9611" stroke="white" stroke-linecap="round" stroke-linejoin="round"/>
<path d="M43.5493 94.0523C43.1491 94.0054 42.7792 93.8177 42.5067 93.5234C42.2343 93.2291 42.0773 92.8477 42.0645 92.4485" stroke="white" stroke-linecap="round" stroke-linejoin="round"/>
<path d="M44.8065 93.6715C44.5771 93.8761 44.2916 94.0086 43.9861 94.0523" stroke="white" stroke-linecap="round" stroke-linejoin="round"/>
<path d="M43.709 90.8088C44 90.8183 44.2835 90.9022 44.5321 91.0526C44.7806 91.2029 44.9856 91.4144 45.1271 91.6666C45.2687 91.9187 45.3419 92.2029 45.3398 92.4915C45.3376 92.78 45.26 93.0631 45.1147 93.3132" stroke="white" stroke-linecap="round" stroke-linejoin="round"/>
<path d="M47.0036 91.2299C46.703 91.1358 46.4047 91.0283 46.0996 90.9611" stroke="white" stroke-linecap="round" stroke-linejoin="round"/>
<path d="M49.5663 91.445C49.311 92.0475 47.8826 91.4987 47.4668 91.3733" stroke="white" stroke-linecap="round" stroke-linejoin="round"/>
<path d="M47.1211 89.8456L49.7924 90.4683C49.7495 90.6453 49.7156 90.8245 49.6817 91.0014" stroke="white" stroke-linecap="round" stroke-linejoin="round"/>
<path d="M45.7986 90.4683C46.0834 89.7963 45.9704 89.5723 46.68 89.7358" stroke="white" stroke-linecap="round" stroke-linejoin="round"/>
<path d="M78.3945 138.017L81.9314 139.092L79.3031 136.023C80.7439 134.435 81.5689 132.392 81.6309 130.257" stroke="white" stroke-linecap="round" stroke-linejoin="round"/>
<path d="M74.1035 139.37C75.289 138.995 76.4078 138.438 77.4189 137.719" stroke="white" stroke-linecap="round" stroke-linejoin="round"/>
<path d="M60.4551 132.851C61.4969 137.826 67.043 140.891 72.8444 139.699" stroke="white" stroke-linecap="round" stroke-linejoin="round"/>
<path d="M61.2994 127.242C61.0767 127.662 60.8878 128.097 60.7344 128.546" stroke="white" stroke-linecap="round" stroke-linejoin="round"/>
<path d="M81.4612 128.533C80.4216 123.558 74.8733 120.493 69.0741 121.687C66.4408 122.2 64.0675 123.6 62.3574 125.65" stroke="white" stroke-linecap="round" stroke-linejoin="round"/>
<path d="M75.3085 126.709C73.6384 124.906 71.3625 126.156 70.4156 127.986C68.8517 126.642 66.2685 126.313 65.3961 128.604C63.9226 132.464 68.9624 134.818 71.2947 135.669C71.5592 135.768 71.7761 135.851 71.9569 135.911C72.1038 135.788 72.2756 135.631 72.4835 135.443C74.3277 133.792 78.1245 129.751 75.3085 126.709Z" stroke="white" stroke-linecap="round" stroke-linejoin="round"/>
<path d="M89.1945 53.2843L85.7796 51.8753L88.0961 55.1815C86.5128 56.6242 85.4974 58.5768 85.2305 60.6919" stroke="white" stroke-linecap="round" stroke-linejoin="round"/>
<path d="M93.5929 52.3412C92.377 52.6024 91.2097 53.0498 90.1328 53.6673" stroke="white" stroke-linecap="round" stroke-linejoin="round"/>
<path d="M106.549 60.1319C105.995 55.0763 100.772 51.4923 94.8829 52.1351" stroke="white" stroke-linecap="round" stroke-linejoin="round"/>
<path d="M105.164 65.6334C105.422 65.2371 105.649 64.8215 105.842 64.3902" stroke="white" stroke-linecap="round" stroke-linejoin="round"/>
<path d="M85.2305 62.4257C85.7842 67.4769 91.007 71.0564 96.8966 70.4225C99.567 70.1625 102.065 68.9952 103.966 67.1185" stroke="white" stroke-linecap="round" stroke-linejoin="round"/>
<path d="M98.3663 65.5169C100.978 64.1314 101.961 60.9101 100.564 58.3219C99.1657 55.7338 95.9157 54.7587 93.3043 56.1442C90.693 57.5296 89.7093 60.7509 91.1072 63.3391C92.505 65.9273 95.755 66.9023 98.3663 65.5169Z" stroke="white" stroke-linecap="round" stroke-linejoin="round"/>
<path d="M93.7988 61.5028L95.4034 63.0036L98.0793 58.4363" stroke="white" stroke-linecap="round" stroke-linejoin="round"/>
<path opacity="0.2" d="M102.54 111.459C102.54 111.459 101.736 121.109 102.9 123.45C104.064 125.791 104.647 141.784 104.125 143.796C104.125 143.796 107.872 144.732 109.354 143.402C110.837 142.071 113.117 143.352 116.873 142.058C120.629 140.763 117.92 112.026 117.92 112.026L118.035 101.572L111.84 96.1019L102.54 111.459Z" fill="black" fill-opacity="0.7"/>
<path d="M107.535 116.101C107.512 116.17 107.474 116.233 107.425 116.287C106.625 117.037 103.21 117.87 100.276 118.471C97.8468 118.97 95.7563 119.308 95.7563 119.308C95.7563 119.308 94.1472 106.054 94.1472 104.661C94.1472 103.268 91.5527 80.7109 91.5527 80.7109L97.7723 80.4443L106.024 80.0904C106.024 80.0904 106.073 80.693 106.157 81.7458C106.702 88.4523 108.573 113.455 107.535 116.101Z" fill="#D214E6"/>
<path opacity="0.2" d="M107.535 116.101L100.276 117.572L97.5345 118.13C96.7909 117.407 96.2237 117.393 96.2237 117.393L95.9977 115.366L95.6429 112.048L92.5195 82.8613C93.1975 82.3976 93.532 81.3829 93.532 81.3829L97.713 81.2328L104.956 80.9707L106.152 81.7368C106.701 88.4523 108.572 113.455 107.535 116.101Z" fill="black" fill-opacity="0.7"/>
<path d="M107.535 116.101L100.276 117.572L97.5345 118.13C96.7909 117.407 96.2237 117.393 96.2237 117.393L95.9977 115.366L95.6429 112.048L92.5195 82.8613C93.1975 82.3976 93.532 81.3829 93.532 81.3829L97.713 81.2328L104.956 80.9707L106.152 81.7368C106.701 88.4523 108.572 113.455 107.535 116.101Z" stroke="#263238" stroke-linecap="round" stroke-linejoin="round"/>
<path d="M96.6074 107.508L99.0301 107.504L99.0324 108.254L98.3589 108.491L96.8063 108.659L96.6074 107.508Z" fill="#D214E6" stroke="#263238" stroke-linecap="round" stroke-linejoin="round"/>
<path d="M96.7578 109.054L98.5387 108.993L98.9952 109.208L98.9726 110.205L96.8934 110.227L96.7578 109.054Z" fill="#D214E6" stroke="#263238" stroke-linecap="round" stroke-linejoin="round"/>
<path d="M97.0426 110.646L99.0766 110.501L99.054 111.256L98.0709 111.601L97.0312 111.542L97.0426 110.646Z" fill="#D214E6" stroke="#263238" stroke-linecap="round" stroke-linejoin="round"/>
<path d="M97.1638 111.919L98.8068 112.001L98.956 112.418L98.7164 112.877L97.2474 112.971L96.9943 112.261L97.1638 111.919Z" fill="#D214E6" stroke="#263238" stroke-linecap="round" stroke-linejoin="round"/>
<path d="M99.0577 113.377L99.2837 114.029C99.3198 114.098 99.3386 114.175 99.3386 114.253C99.3386 114.331 99.3198 114.407 99.2837 114.477C99.2417 114.524 99.188 114.56 99.1279 114.582C99.0677 114.603 99.0031 114.608 98.9402 114.598C98.8136 114.586 98.6893 114.544 98.5628 114.537C98.1808 114.521 97.8305 114.833 97.4554 114.761C97.3085 114.358 96.9378 113.767 97.4395 113.585C97.5322 113.556 99.1119 113.525 99.0577 113.377Z" fill="#D214E6" stroke="#263238" stroke-linecap="round" stroke-linejoin="round"/>
<path d="M99.0509 115.211C99.0868 115.366 99.1125 115.523 99.1278 115.682C99.1507 115.782 99.1474 115.886 99.1181 115.984C99.0888 116.083 99.0346 116.172 98.9605 116.244C98.8642 116.296 98.7563 116.325 98.6464 116.327L97.3401 116.443C97.3211 116.199 97.3173 115.954 97.3288 115.709C97.4057 115.417 97.3514 115.442 97.6294 115.323C98.0701 115.137 98.5989 115.433 99.0509 115.211Z" fill="#D214E6" stroke="#263238" stroke-linecap="round" stroke-linejoin="round"/>
<path d="M94.3008 83.5243C94.3008 83.5243 94.7935 88.244 94.8161 89.1781" stroke="#263238" stroke-linecap="round" stroke-linejoin="round"/>
<path d="M95.3633 83.5758L95.5938 86.1764" stroke="#263238" stroke-linecap="round" stroke-linejoin="round"/>
<path d="M99.0449 82.5925L99.3432 85.6411L99.7613 85.6814L99.6257 82.6216L99.0449 82.5925Z" fill="#D214E6" stroke="#263238" stroke-linecap="round" stroke-linejoin="round"/>
<path opacity="0.2" d="M107.536 116.101C107.512 116.17 107.475 116.233 107.425 116.287C106.625 117.037 103.21 117.87 100.277 118.471V116.455L96.0074 115.37L95.3633 115.207L95.6526 112.053L96.7577 100.002L97.7227 81.2418L97.7634 80.4443L106.024 80.0904C106.024 80.0904 106.073 80.693 106.157 81.7458C106.702 88.4523 108.573 113.455 107.536 116.101Z" fill="black" fill-opacity="0.7"/>
<path d="M107.535 116.101C107.512 116.17 107.474 116.233 107.425 116.287C106.625 117.037 103.21 117.87 100.276 118.471C97.8468 118.97 95.7563 119.308 95.7563 119.308C95.7563 119.308 94.1472 106.054 94.1472 104.661C94.1472 103.268 91.5527 80.7109 91.5527 80.7109L97.7723 80.4443L106.024 80.0904C106.024 80.0904 106.073 80.693 106.157 81.7458C106.702 88.4523 108.573 113.455 107.535 116.101Z" stroke="#263238" stroke-linecap="round" stroke-linejoin="round"/>
<path d="M111.913 146.177C111.965 145.705 111.215 138.924 111.202 138.187C111.165 136.171 110.589 133.526 110.589 133.526C109.785 131.487 109.158 126.79 107.011 123.777C104.864 120.764 104.867 117.221 104.51 114.212C104.153 111.204 104.241 111.464 104.331 108.794C104.396 106.788 104.306 104.78 104.062 102.788C103.884 101.014 103.527 97.894 104.062 96.4402C104.598 94.9864 105.999 94.6482 107.534 96.1042C109.068 97.5602 109.694 103.53 109.694 104.267C109.694 105.004 109.694 107.306 110.232 108.193C110.232 108.193 113.272 106.652 113.272 106.227C113.272 105.801 113.181 102.04 113.629 101.839L111.841 96.1042L115.231 94.9103C115.869 95.4776 116.42 96.1341 116.867 96.8591C117.25 97.4594 117.57 98.0965 117.823 98.7608C119.254 102.522 121.552 105.145 122.027 106.227C122.502 107.309 122.027 115.901 122.027 117.498C122.027 119.096 120.987 126.458 121.014 127.697C121.035 128.593 121.645 131.926 122.253 134.482C122.479 135.468 123.851 142.609 124.061 143.176L111.913 146.177Z" fill="white"/>
<path opacity="0.4" d="M114.589 101.46C114.567 101.942 115.147 105.781 115.147 105.781C115.55 106.737 113.353 109.999 113.353 109.999C112.878 110.263 112.675 111.903 112.675 111.903C111.188 111.576 107.782 108.182 107.782 108.182C107.782 108.182 107.38 109.573 106.928 113.016C106.476 116.459 109.342 124.637 110.562 130.284C111.782 135.931 111.202 138.18 111.202 138.18C111.165 136.164 110.589 133.519 110.589 133.519C109.785 131.481 109.158 126.783 107.011 123.77C104.864 120.758 104.867 117.221 104.51 114.212C104.153 111.204 104.241 111.464 104.331 108.794C104.396 106.788 104.306 104.78 104.062 102.788C103.884 101.014 103.527 97.894 104.062 96.4402C104.598 94.9864 105.999 94.6482 107.534 96.1042C109.068 97.5602 109.694 103.53 109.694 104.267C109.694 105.004 109.694 107.306 110.232 108.193C110.232 108.193 113.272 106.652 113.272 106.227C113.272 105.801 113.181 102.04 113.629 101.839L111.841 96.1042L115.231 94.9103C115.869 95.4776 116.42 96.1341 116.867 96.8591C115.771 99.0319 114.612 101.16 114.589 101.46Z" fill="#D214E6"/>
<path opacity="0.4" d="M120.289 128.291C120.438 126.947 120.883 123.752 121.166 121.759C120.82 123.316 120.262 124.104 120.262 124.104C120.262 124.104 121.224 112.68 121.319 111.984C121.414 111.287 122.386 108.155 122.029 106.216C122.503 107.295 122.029 115.89 122.029 117.487C122.029 119.084 120.989 126.447 121.016 127.686C121.037 128.582 122.006 134.292 122.614 136.848C121.308 134.966 120.139 129.641 120.289 128.291Z" fill="#D214E6"/>
<path d="M124.056 143.164C123.342 141.126 121.048 128.918 121.021 127.686C120.994 126.454 122.034 119.082 122.034 117.487C122.034 115.892 122.508 107.295 122.034 106.216C121.559 105.136 119.261 102.511 117.83 98.7496C117.289 97.279 116.4 95.9585 115.238 94.899L111.848 96.093L113.636 101.827C113.184 102.029 113.279 105.79 113.279 106.216C113.279 106.641 110.239 108.182 110.239 108.182C109.701 107.286 109.701 104.992 109.701 104.256C109.701 103.519 109.075 97.5467 107.54 96.093C106.006 94.6392 104.602 94.973 104.069 96.429C103.536 97.885 103.89 101.003 104.069 102.777C104.314 104.771 104.404 106.781 104.338 108.789C104.248 111.459 104.157 111.195 104.516 114.208C104.876 117.221 104.874 120.764 107.018 123.777C109.163 126.79 109.791 131.487 110.596 133.526C110.596 133.526 112.115 144.405 111.92 146.177" stroke="#263238" stroke-linecap="round" stroke-linejoin="round"/>
<path d="M110.232 108.182C110.232 108.182 110.768 110.662 111.975 111.903" stroke="#263238" stroke-linecap="round" stroke-linejoin="round"/>
<path d="M110.557 109.313C110.557 109.313 112.817 109.999 113.761 110.041" stroke="#263238" stroke-linecap="round" stroke-linejoin="round"/>
<path d="M113.271 106.215C113.271 106.215 114.88 105.479 115.909 105.922" stroke="#263238" stroke-linecap="round" stroke-linejoin="round"/>
<path d="M113.629 101.827C113.629 101.827 114.881 101.713 115.148 101.093" stroke="#263238" stroke-linecap="round" stroke-linejoin="round"/>
<path d="M107.424 124.409C107.424 124.409 109.828 127.368 110.543 128.873" stroke="#263238" stroke-linecap="round" stroke-linejoin="round"/>
<path d="M121.408 111.459C121.005 113.809 120.468 120.233 120.289 121.385" stroke="#263238" stroke-linecap="round" stroke-linejoin="round"/>
<path d="M122.177 107.029C122.244 109.157 121.725 110.263 121.725 110.263" stroke="#263238" stroke-linecap="round" stroke-linejoin="round"/>
<path d="M103.691 77.2523L120.262 81.5845C120.262 81.5845 114.438 99.1035 113.256 101.276L111.28 116.549C111.28 116.549 100.694 116.087 95.8264 114.629C95.8264 114.629 98.9045 98.725 99.0695 96.6037C99.2345 94.4824 103.691 77.2523 103.691 77.2523Z" fill="#D214E6"/>
<path opacity="0.2" d="M100.127 95.6629L103.779 80.1867C103.779 80.1867 105.35 79.4139 105.958 78.7083L117.829 82.0549C117.829 82.0549 117.866 83.2085 118.546 83.9477L112.555 101.059L111.101 113.672C111.101 113.672 109.169 113.825 108.984 115.24C108.984 115.24 102.719 115.576 98.5177 114.479C98.5177 114.479 98.0227 112.949 97.2656 111.981L100.127 95.6629Z" fill="black" fill-opacity="0.7"/>
<path d="M100.127 95.6629L103.779 80.1867C103.779 80.1867 105.35 79.4139 105.958 78.7083L117.829 82.0549C117.829 82.0549 117.866 83.2085 118.546 83.9477L112.555 101.059L111.101 113.672C111.101 113.672 109.169 113.825 108.984 115.24C108.984 115.24 102.719 115.576 98.5177 114.479C98.5177 114.479 98.0227 112.949 97.2656 111.981L100.127 95.6629Z" stroke="#263238" stroke-linecap="round" stroke-linejoin="round"/>
<path d="M103.166 96.467C103.166 96.467 104.244 92.435 108.041 93.1586C111.838 93.8821 109.693 98.8504 109.693 98.8504C109.693 98.8504 109.715 102.86 106.635 102.307C103.964 101.827 102.54 100.374 103.166 96.467Z" fill="#D214E6" stroke="#263238" stroke-linecap="round" stroke-linejoin="round"/>
<path d="M105.223 81.6584C105.223 81.6584 104.075 86.2661 103.779 87.1531" stroke="#263238" stroke-linecap="round" stroke-linejoin="round"/>
<path d="M106.206 82.0571L105.537 84.5838" stroke="#263238" stroke-linecap="round" stroke-linejoin="round"/>
<path d="M114.588 83.829L116.873 84.6264L116.622 85.3365H115.908L114.387 84.9826L114.588 83.829Z" fill="#D214E6" stroke="#263238" stroke-linecap="round" stroke-linejoin="round"/>
<path d="M114.208 85.3365L115.908 85.8674L116.265 86.2213L115.908 87.1531L113.939 86.4878L114.208 85.3365Z" fill="#D214E6" stroke="#263238" stroke-linecap="round" stroke-linejoin="round"/>
<path d="M113.941 86.9314L115.909 87.469L115.631 88.1724H114.589L113.629 87.7736L113.941 86.9314Z" fill="#D214E6" stroke="#263238" stroke-linecap="round" stroke-linejoin="round"/>
<path d="M113.627 88.1723L115.146 88.7928V89.2341L114.766 89.5902L113.352 89.1915V88.4366L113.627 88.1723Z" fill="#D214E6" stroke="#263238" stroke-linecap="round" stroke-linejoin="round"/>
<path d="M114.924 90.1726V90.8625C114.936 90.9385 114.929 91.0162 114.905 91.0893C114.881 91.1624 114.841 91.229 114.786 91.2837C114.73 91.314 114.667 91.33 114.603 91.33C114.539 91.33 114.476 91.314 114.42 91.2837C114.305 91.2299 114.194 91.1493 114.085 91.1022C113.731 90.9611 113.294 91.1381 112.955 90.9499C112.955 90.5221 112.804 89.8433 113.337 89.8299C113.425 89.8366 114.924 90.3294 114.924 90.1726Z" fill="#D214E6" stroke="#263238" stroke-linecap="round" stroke-linejoin="round"/>
<path d="M114.297 91.8996C114.28 92.0576 114.251 92.214 114.211 92.3678C114.161 92.5672 114.064 92.7889 113.863 92.8427C113.755 92.8605 113.644 92.8513 113.54 92.8158L112.27 92.4843C112.331 92.2486 112.407 92.0167 112.496 91.7899C112.668 91.5412 112.609 91.5457 112.909 91.5256C113.398 91.5054 113.795 91.9601 114.297 91.8996Z" fill="#D214E6" stroke="#263238" stroke-linecap="round" stroke-linejoin="round"/>
<path d="M110.007 82.3685L109.246 85.3365L109.626 85.5134L110.543 82.588L110.007 82.3685Z" fill="#D214E6" stroke="#263238" stroke-linecap="round" stroke-linejoin="round"/>
<path d="M100.463 102.3L102.809 102.903L102.619 103.628L101.907 103.691L100.361 103.465L100.463 102.3Z" fill="#D214E6" stroke="#263238" stroke-linecap="round" stroke-linejoin="round"/>
<path d="M100.214 103.834L101.952 104.22L102.341 104.542L102.065 105.501L100.047 105.004L100.214 103.834Z" fill="#D214E6" stroke="#263238" stroke-linecap="round" stroke-linejoin="round"/>
<path d="M100.085 105.447L102.092 105.815L101.875 106.538L100.838 106.628L99.8457 106.312L100.085 105.447Z" fill="#D214E6" stroke="#263238" stroke-linecap="round" stroke-linejoin="round"/>
<path d="M99.8798 106.708L101.448 107.199L101.487 107.64L101.139 108.025L99.6944 107.748L99.6289 106.997L99.8798 106.708Z" fill="#D214E6" stroke="#263238" stroke-linecap="round" stroke-linejoin="round"/>
<path d="M101.343 108.592L101.404 109.28C101.422 109.355 101.423 109.433 101.405 109.508C101.388 109.583 101.352 109.653 101.302 109.712C101.249 109.747 101.188 109.768 101.124 109.773C101.06 109.778 100.997 109.767 100.938 109.741C100.819 109.699 100.712 109.627 100.588 109.591C100.224 109.479 99.8039 109.692 99.4581 109.533C99.4174 109.107 99.2118 108.444 99.7406 108.393C99.822 108.388 101.356 108.749 101.343 108.592Z" fill="#D214E6" stroke="#263238" stroke-linecap="round" stroke-linejoin="round"/>
<path d="M100.871 110.366C100.868 110.529 100.852 110.692 100.826 110.852C100.792 111.054 100.715 111.285 100.521 111.354C100.414 111.381 100.302 111.381 100.195 111.354L98.9023 111.13C98.9459 110.889 99.004 110.652 99.0764 110.418C99.2255 110.156 99.1668 110.165 99.4651 110.12C99.9397 110.05 100.374 110.469 100.871 110.366Z" fill="#D214E6" stroke="#263238" stroke-linecap="round" stroke-linejoin="round"/>
<path d="M110.23 112.541C110.23 112.541 110.768 106.596 110.768 105.998" stroke="#263238" stroke-linecap="round" stroke-linejoin="round"/>
<path d="M109.158 112.275C109.158 112.275 109.384 109.183 109.425 108.646" stroke="#263238" stroke-linecap="round" stroke-linejoin="round"/>
<path d="M104.966 110.041L104.24 113.56H104.966L105.492 110.041H104.966Z" fill="#D214E6" stroke="#263238" stroke-linecap="round" stroke-linejoin="round"/>
<path opacity="0.2" d="M113.293 101.189C111.724 100.864 110.325 100.387 109.29 99.6993C109.29 99.6993 110.041 101.836 112.701 105.479L111.27 116.549C111.27 116.549 104.361 116.248 99.1406 115.364C100.745 110.884 103.661 102.394 103.315 100.712C102.847 98.4024 104.499 95.6763 104.499 95.6763C109.722 94.7445 114.787 90.8312 118.262 87.5227C116.493 92.7083 114.077 99.6523 113.293 101.189Z" fill="black" fill-opacity="0.7"/>
<path d="M103.691 77.2523L120.262 81.5845C120.262 81.5845 114.438 99.1035 113.256 101.276L111.28 116.549C111.28 116.549 100.694 116.087 95.8264 114.629C95.8264 114.629 98.9045 98.725 99.0695 96.6037C99.2345 94.4824 103.691 77.2523 103.691 77.2523Z" stroke="#263238" stroke-linecap="round" stroke-linejoin="round"/>
<path d="M112.878 112.127L110.544 128.873C110.024 127.778 108.607 125.91 107.875 124.976C107.604 124.626 107.423 124.409 107.423 124.409L107.009 123.777C104.864 120.764 104.864 117.221 104.507 114.208C104.15 111.195 104.238 111.459 104.329 108.789C104.395 106.785 104.305 104.779 104.062 102.788C103.884 101.014 103.527 97.8939 104.062 96.4402C104.324 95.7278 104.797 95.2843 105.389 95.1902C105.981 95.0962 106.745 95.365 107.534 96.1042C109.068 97.5579 109.694 103.53 109.694 104.267C109.694 105.004 109.694 107.306 110.232 108.193C110.232 108.182 111.674 110.886 112.878 112.127Z" fill="white"/>
<path opacity="0.4" d="M106.833 122.583C107.321 123.201 107.653 124.093 107.875 124.976C107.604 124.626 107.423 124.409 107.423 124.409L107.009 123.777C104.864 120.764 104.864 117.221 104.507 114.208C104.15 111.195 104.238 111.459 104.329 108.789C104.395 106.785 104.305 104.779 104.062 102.788C103.884 101.014 103.527 97.8939 104.062 96.4402C104.324 95.7278 104.797 95.2843 105.389 95.1902C106.519 95.5083 107.649 96.6485 108.042 98.5995C108.72 101.874 105.662 99.229 104.955 102.004C104.248 104.78 105.276 105.528 105.698 106.227C106.121 106.926 105.581 108.467 104.955 110.536C104.329 112.606 105.493 120.883 106.833 122.583Z" fill="#D214E6"/>
<path d="M112.877 112.127C111.671 110.886 110.231 108.182 110.231 108.182C109.693 107.286 109.693 104.992 109.693 104.256C109.693 103.519 109.067 97.5467 107.533 96.0929C105.998 94.6392 104.595 94.9729 104.061 96.4289C103.528 97.8849 103.883 101.003 104.061 102.777C104.306 104.771 104.396 106.781 104.33 108.789C104.24 111.459 104.149 111.195 104.509 114.208C104.868 117.221 104.866 120.764 107.011 123.777L107.424 124.409C107.424 124.409 109.829 127.368 110.543 128.873" stroke="#263238" stroke-linecap="round" stroke-linejoin="round"/>
<path d="M104.967 105.039C104.967 105.039 107.017 103.989 108.043 104.079" stroke="#263238" stroke-linecap="round" stroke-linejoin="round"/>
<path opacity="0.2" d="M73.6633 76.3137C73.6633 76.3137 68.4788 70.6555 68.1218 70.3083C67.7647 69.9611 67.4957 63.9265 66.5104 61.2699C65.525 58.6133 65.0482 43.0139 65.0482 43.0139C65.0482 43.0139 64.1103 41.8625 61.4661 42.483C58.8219 43.1035 56.2296 41.9499 53.2803 43.6344C50.331 45.3189 56.0511 69.4123 56.0511 69.4123L61.857 87.7512L73.6633 76.3137Z" fill="black" fill-opacity="0.7"/>
<path d="M77.2244 76.3563C77.2244 76.3563 74.9011 91.0664 72.4784 93.0152C71.0794 94.1352 68.8985 94.6504 66.964 94.5832C65.5628 94.5339 64.2881 94.1845 63.5378 93.5506C61.7501 92.043 59.2438 91.2456 57.9963 90.2712C56.7488 89.2968 56.7442 85.8405 55.9397 82.915C55.1351 79.9896 53.9712 79.9022 53.7045 76.979C53.4379 74.0558 52.3621 65.107 50.4185 62.6229C48.4749 60.1387 48.4297 58.1921 47.6251 55.6654C46.8206 53.1387 40.9355 43.9973 40.9355 43.9973L55.282 41.0853C55.282 41.0853 56.6923 46.8712 58.202 51.5909C58.9184 53.8309 59.6574 55.8334 60.2766 56.8593C61.4657 58.8437 62.4956 60.9176 63.357 63.0619C64.9797 64.7464 65.8679 68.4782 66.1368 71.7464L69.9788 73.8699C72.9326 74.6696 77.2244 76.3563 77.2244 76.3563Z" fill="white"/>
<path opacity="0.4" d="M77.2244 76.3563C77.2244 76.3563 74.9011 91.0664 72.4784 93.0152C71.0794 94.1352 68.8985 94.6504 66.964 94.5832C62.3762 93.4632 61.1422 90.9275 60.5207 90.3137C59.6936 89.4961 58.6065 84.5144 59.2031 81.6158C59.7998 78.7173 59.3704 77.6443 58.8777 76.2286C57.7861 73.0926 61.1151 71.4037 61.4586 70.2165C61.8021 69.0293 61.6846 62.3899 60.1862 60.2305C59.3907 59.0814 57.3409 53.1589 58.2042 51.5953C58.9206 53.8353 59.6597 55.8379 60.2789 56.8638C61.4679 58.8482 62.4979 60.9221 63.3593 63.0664C64.982 64.7509 65.8701 68.4827 66.1391 71.7509L69.9811 73.8744C72.9326 74.6696 77.2244 76.3563 77.2244 76.3563Z" fill="#D214E6"/>
<path d="M59.7049 75.3214C59.7049 75.3214 58.8958 76.2644 58.1816 76.2644" stroke="#263238" stroke-linecap="round" stroke-linejoin="round"/>
<path d="M61.4651 78.5089C61.4651 78.5089 60.595 80.3412 59.2051 80.7489" stroke="#263238" stroke-linecap="round" stroke-linejoin="round"/>
<path d="M59.9199 89.2475C59.9199 89.2475 61.8884 88.4052 62.2003 86.9873" stroke="#263238" stroke-linecap="round" stroke-linejoin="round"/>
<path d="M69.9829 73.8722C69.9829 73.8722 69.4902 74.4927 69.4902 74.9922" stroke="#263238" stroke-linecap="round" stroke-linejoin="round"/>
<path d="M55.2911 41.0853C55.2911 41.0853 58.3601 53.6673 60.2857 56.8683C61.4747 58.8527 62.5047 60.9266 63.366 63.0709C64.9887 64.7553 65.8769 68.4894 66.1458 71.7576L69.9878 73.8811C72.9371 74.6785 77.2198 76.363 77.2198 76.363C77.2198 76.363 74.8966 91.0731 72.4738 93.0219C70.0511 94.9707 65.3435 95.0513 63.5355 93.5461C61.7275 92.0408 59.2415 91.2411 57.994 90.2667C56.7465 89.2923 56.742 85.836 55.9374 82.9105C55.1329 79.9851 53.969 79.8977 53.7023 76.9745C53.4356 74.0513 52.3598 65.1025 50.4162 62.6184C48.4726 60.1342 48.4274 58.1877 47.6229 55.6609C46.8183 53.1342 40.9355 43.9973 40.9355 43.9973" stroke="#263238" stroke-linecap="round" stroke-linejoin="round"/>
<path d="M82.6594 75.4021L58.9316 111.603L64.5319 112.221L81.5475 112.922L83.2899 80.7221L82.6594 75.4021Z" fill="#263238" stroke="#263238" stroke-linecap="round" stroke-linejoin="round"/>
<path d="M82.6594 75.3999L80.4672 112.304L58.9316 111.603L60.6312 83.325L61.16 74.5442L70.5435 74.9183L82.6594 75.3999Z" fill="#757575"/>
<path d="M77.2444 108.055C78.6923 108.055 79.866 106.891 79.866 105.456C79.866 104.021 78.6923 102.858 77.2444 102.858C75.7965 102.858 74.6228 104.021 74.6228 105.456C74.6228 106.891 75.7965 108.055 77.2444 108.055Z" fill="#BFBFBF" stroke="#263238" stroke-miterlimit="10"/>
<path d="M76.5057 103.731L78.282 103.962" stroke="#263238" stroke-linecap="round" stroke-linejoin="round"/>
<path d="M76.0288 104.159L78.6979 104.417" stroke="#263238" stroke-linecap="round" stroke-linejoin="round"/>
<path d="M75.7322 106.767L78.4035 107.024" stroke="#263238" stroke-linecap="round" stroke-linejoin="round"/>
<path d="M76.9006 104.748C76.974 104.766 77.0516 104.756 77.1172 104.719C77.1829 104.682 77.2316 104.621 77.2532 104.549L77.4521 104.569L77.2509 106.44L76.9549 106.408L77.1086 104.981L76.8826 104.957L76.9006 104.748Z" fill="#263238"/>
<path d="M77.8882 104.827C78.0058 104.827 78.06 104.914 78.0464 105.037V105.06L77.9312 105.049V105.028C77.9312 104.975 77.9176 104.95 77.8792 104.945C77.8408 104.941 77.8159 104.961 77.8114 105.015C77.8069 105.069 77.825 105.116 77.8973 105.192C77.934 105.223 77.9628 105.262 77.9812 105.306C77.9997 105.35 78.0073 105.397 78.0035 105.445C77.9899 105.568 77.9221 105.631 77.8024 105.617C77.6826 105.604 77.6306 105.528 77.6419 105.407V105.36L77.7549 105.371V105.427C77.7549 105.481 77.7707 105.503 77.8091 105.508C77.8476 105.512 77.8747 105.494 77.8792 105.441C77.8837 105.387 77.8656 105.34 77.7933 105.264C77.7566 105.233 77.7278 105.194 77.7093 105.15C77.6909 105.106 77.6832 105.058 77.6871 105.01C77.7029 104.876 77.773 104.804 77.8882 104.827Z" fill="#263238"/>
<path d="M78.1009 104.858L78.4761 104.896L78.4625 105.006L78.3359 104.992L78.2659 105.647L78.1461 105.635L78.2162 104.979L78.0896 104.966L78.1009 104.858Z" fill="#263238"/>
<path d="M71.748 77.0381L67.5439 76.1288C67.4353 76.1053 67.3282 76.1735 67.3045 76.2811L66.7325 78.8788C66.7088 78.9864 66.7776 79.0926 66.8862 79.1161L71.0903 80.0254C71.1988 80.0489 71.306 79.9807 71.3297 79.8731L71.9016 77.2754C71.9253 77.1678 71.8565 77.0616 71.748 77.0381Z" fill="white" stroke="#263238" stroke-linecap="round" stroke-linejoin="round"/>
<path d="M68.903 78.6546C68.902 78.6367 68.8974 78.6191 68.8895 78.603C68.8873 78.5942 68.8873 78.585 68.8895 78.5762C68.8929 78.5694 68.8985 78.5639 68.9053 78.5605C68.9663 78.5067 68.8917 78.435 68.833 78.4216C68.8127 78.4166 68.7914 78.4168 68.7712 78.4223C68.751 78.4278 68.7326 78.4384 68.7177 78.453L68.7652 78.2782L68.9731 78.323L68.9957 78.2155L68.6838 78.1483C68.6772 78.1633 68.6727 78.1792 68.6703 78.1954C68.6703 78.211 68.6906 78.2155 68.6906 78.2334C68.6906 78.2514 68.6906 78.2491 68.6906 78.2581C68.6947 78.2712 68.7036 78.2824 68.7155 78.2894C68.7268 78.2894 68.7381 78.3096 68.7358 78.323C68.7373 78.3274 68.7373 78.3321 68.7358 78.3365C68.7272 78.3571 68.7122 78.3744 68.6929 78.3858C68.684 78.3875 68.676 78.3922 68.6703 78.3992V78.4126C68.6703 78.4283 68.6522 78.4373 68.6386 78.4462C68.6251 78.4552 68.5912 78.5269 68.5776 78.5762L68.6906 78.6008V78.5784C68.7019 78.5246 68.7313 78.5112 68.7674 78.5179C68.8036 78.5246 68.8262 78.5515 68.8126 78.6053L68.7765 78.771C68.7765 78.8226 68.7381 78.8382 68.6996 78.8293C68.6612 78.8203 68.6431 78.7979 68.6544 78.7442L68.6703 78.6747L68.5573 78.6501L68.5437 78.7128C68.5349 78.7371 68.5315 78.763 68.5337 78.7887C68.5358 78.8144 68.5434 78.8394 68.5561 78.862C68.5687 78.8845 68.5861 78.9041 68.607 78.9195C68.6279 78.9349 68.6519 78.9457 68.6774 78.9511C68.7028 78.9566 68.7291 78.9566 68.7546 78.9512C68.78 78.9458 68.804 78.935 68.825 78.9197C68.8459 78.9043 68.8633 78.8847 68.876 78.8622C68.8887 78.8396 68.8963 78.8147 68.8985 78.789C68.9065 78.7446 68.9081 78.6993 68.903 78.6546Z" fill="#263238"/>
<path d="M70.3795 78.9682C70.3774 78.9504 70.3728 78.9331 70.3659 78.9166C70.3637 78.9078 70.3637 78.8986 70.3659 78.8898C70.3694 78.883 70.3749 78.8775 70.3817 78.8741C70.4405 78.8203 70.3659 78.7486 70.3094 78.7352C70.2891 78.7302 70.2678 78.7304 70.2477 78.7359C70.2275 78.7414 70.2091 78.752 70.1942 78.7666L70.2416 78.5918L70.4495 78.6366L70.4721 78.5291L70.1603 78.4619C70.1527 78.4766 70.1481 78.4925 70.1467 78.509C70.1467 78.5246 70.1648 78.5291 70.167 78.547C70.1693 78.565 70.167 78.5627 70.167 78.5717C70.1712 78.5848 70.18 78.596 70.1919 78.603C70.2032 78.603 70.2145 78.6232 70.2122 78.6366C70.21 78.6501 70.2122 78.6366 70.2122 78.6501C70.2036 78.6713 70.1875 78.6888 70.167 78.6994C70.159 78.7017 70.1519 78.7064 70.1467 78.7128C70.1467 78.7128 70.1467 78.7128 70.1467 78.7262C70.1467 78.7397 70.1309 78.7509 70.1173 78.7598C70.1038 78.7688 70.0699 78.8405 70.0563 78.8898L70.1693 78.9144V78.892C70.1806 78.8382 70.21 78.8248 70.2461 78.8315C70.2823 78.8382 70.3026 78.8651 70.2913 78.9189L70.2552 79.0846C70.2552 79.1362 70.2168 79.1518 70.1783 79.1429C70.1399 79.1339 70.1218 79.1115 70.1331 79.0578L70.149 78.9883L70.036 78.9637L70.0224 79.0264C70.0156 79.05 70.0137 79.0747 70.0169 79.099C70.0201 79.1233 70.0283 79.1467 70.041 79.1677C70.0536 79.1888 70.0705 79.207 70.0906 79.2213C70.1107 79.2356 70.1335 79.2457 70.1577 79.2509C70.1818 79.2562 70.2068 79.2564 70.2311 79.2517C70.2554 79.2469 70.2784 79.2373 70.2988 79.2234C70.3191 79.2095 70.3364 79.1916 70.3495 79.1708C70.3626 79.15 70.3713 79.1268 70.375 79.1026C70.384 79.0583 70.3855 79.0129 70.3795 78.9682Z" fill="#263238"/>
<path d="M69.7157 78.8025H69.727C69.727 78.7913 69.727 78.7801 69.727 78.7644H69.7768L69.8152 78.5919C69.8239 78.5674 69.8272 78.5413 69.825 78.5154C69.8227 78.4895 69.815 78.4644 69.8022 78.4417C69.7894 78.419 69.772 78.3992 69.7509 78.3837C69.7299 78.3682 69.7058 78.3573 69.6802 78.3517C69.6545 78.3461 69.628 78.346 69.6024 78.3513C69.5767 78.3566 69.5525 78.3673 69.5313 78.3826C69.5101 78.3979 69.4924 78.4174 69.4794 78.44C69.4664 78.4626 69.4584 78.4876 69.4558 78.5135V78.5449C69.4717 78.5583 69.4807 78.5807 69.4965 78.5919C69.5123 78.6031 69.5372 78.5919 69.5304 78.63C69.5236 78.6681 69.5169 78.6613 69.5304 78.6725C69.544 78.6837 69.5462 78.6725 69.5485 78.6882C69.5513 78.6917 69.5527 78.6961 69.5527 78.7005C69.5527 78.705 69.5513 78.7093 69.5485 78.7129C69.5485 78.7129 69.5327 78.7129 69.5304 78.733C69.5282 78.7532 69.5304 78.7666 69.5169 78.7711C69.5033 78.7756 69.4739 78.7442 69.4491 78.7465C69.4402 78.749 69.4321 78.7539 69.4258 78.7606C69.4194 78.7673 69.415 78.7756 69.4129 78.7845C69.4014 78.8226 69.3931 78.8616 69.388 78.901C69.3798 78.9247 69.3769 78.9499 69.3797 78.9748C69.3824 78.9998 69.3906 79.0238 69.4038 79.0452C69.417 79.0666 69.4347 79.0848 69.4558 79.0986C69.477 79.1124 69.5009 79.1214 69.5259 79.125C69.5516 79.1318 69.5785 79.133 69.6046 79.1283C69.6308 79.1237 69.6556 79.1134 69.6773 79.0981C69.6973 79.081 69.7142 79.0605 69.727 79.0377C69.7372 79.0262 69.7428 79.0115 69.7428 78.9962C69.7428 78.981 69.7372 78.9662 69.727 78.9548H69.7157L69.6999 78.901C69.6999 78.901 69.6999 78.901 69.7157 78.8876C69.7316 78.8741 69.7157 78.845 69.7383 78.8293C69.7609 78.8137 69.7112 78.8069 69.7157 78.8025ZM69.6208 78.9548C69.6095 79.0085 69.5801 79.0242 69.5417 79.0153C69.5033 79.0063 69.4852 78.9817 69.4965 78.9279L69.5869 78.5247C69.5982 78.4709 69.6253 78.4553 69.6638 78.4642C69.7022 78.4732 69.7203 78.4978 69.709 78.5516L69.6208 78.9548Z" fill="#263238"/>
<path d="M69.9172 79.0802L69.8924 79.1944L69.7771 79.1698L69.802 79.0555L69.9172 79.0802Z" fill="#263238"/>
<path d="M70.8625 78.8808C70.876 78.8808 70.876 78.8293 70.8805 78.8114C70.8892 78.7869 70.8925 78.7608 70.8903 78.7349C70.8881 78.709 70.8803 78.6839 70.8676 78.6612C70.8548 78.6385 70.8373 78.6187 70.8163 78.6032C70.7952 78.5877 70.7711 78.5768 70.7455 78.5712C70.7199 78.5656 70.6934 78.5655 70.6677 78.5708C70.6421 78.5761 70.6178 78.5868 70.5966 78.6021C70.5754 78.6173 70.5577 78.6369 70.5447 78.6595C70.5317 78.6821 70.5237 78.7071 70.5212 78.733L70.4873 78.8831C70.5167 78.9099 70.4873 78.9525 70.5009 78.9839C70.5144 79.0152 70.5009 78.9839 70.5009 78.9973C70.5009 79.0107 70.467 79.0175 70.467 79.0354C70.467 79.0354 70.467 79.0533 70.467 79.0354C70.467 79.0354 70.4489 79.0623 70.4376 79.0757C70.4305 79.0863 70.4265 79.0988 70.4263 79.1115C70.4176 79.1361 70.4143 79.1621 70.4165 79.188C70.4187 79.2139 70.4265 79.239 70.4393 79.2617C70.452 79.2844 70.4695 79.3042 70.4905 79.3197C70.5116 79.3352 70.5357 79.3461 70.5613 79.3517C70.5869 79.3573 70.6134 79.3574 70.6391 79.3521C70.6648 79.3468 70.689 79.3361 70.7102 79.3209C70.7314 79.3056 70.7491 79.286 70.7621 79.2634C70.7751 79.2408 70.7831 79.2158 70.7856 79.1899L70.8127 79.0667C70.8127 79.0354 70.8534 78.9525 70.8127 78.9279C70.7721 78.9032 70.7947 78.9279 70.7901 78.9122C70.7874 78.907 70.7859 78.9012 70.7859 78.8954C70.7859 78.8895 70.7874 78.8837 70.7901 78.8786C70.8173 78.8562 70.8376 78.8943 70.8625 78.8808ZM70.7246 79.0779C70.7246 79.0914 70.702 79.0959 70.6907 79.1138C70.682 79.136 70.6767 79.1594 70.6749 79.1832C70.6636 79.237 70.6342 79.2504 70.598 79.2437C70.5619 79.237 70.5393 79.2101 70.5528 79.1563C70.5528 79.1407 70.5732 79.0959 70.5687 79.0824C70.5641 79.069 70.5461 79.0824 70.537 79.0555C70.5302 79.0321 70.5302 79.0073 70.537 78.9839C70.5381 78.9787 70.5381 78.9733 70.537 78.9682C70.537 78.9682 70.5257 78.948 70.537 78.9391C70.537 78.9391 70.5483 78.9301 70.537 78.9391C70.537 78.9391 70.537 78.9099 70.537 78.8898C70.537 78.8696 70.537 78.8898 70.537 78.8898C70.6093 78.9167 70.6071 78.8069 70.6184 78.7621C70.6297 78.7173 70.6591 78.6927 70.6952 78.7016C70.7314 78.7106 70.7517 78.7352 70.7404 78.7867C70.7251 78.8324 70.716 78.8798 70.7133 78.9279C70.7227 78.9293 70.7314 78.9338 70.738 78.9407C70.7445 78.9476 70.7486 78.9565 70.7495 78.9659C70.7472 78.9778 70.7472 78.9899 70.7495 79.0018C70.7495 79.0018 70.7495 79.0219 70.7495 79.0309C70.7495 79.0399 70.7359 79.0309 70.7269 79.0309C70.7206 79.0333 70.7151 79.0373 70.7107 79.0424C70.7064 79.0474 70.7034 79.0535 70.702 79.06L70.7246 79.0779Z" fill="#263238"/>
<path d="M69.5994 77.2523L70.3632 77.4181" stroke="#263238" stroke-linecap="round" stroke-linejoin="round"/>
<path d="M67.863 76.876L69.219 77.1717" stroke="#263238" stroke-linecap="round" stroke-linejoin="round"/>
<path d="M67.7498 77.3957L68.6447 77.5883" stroke="#263238" stroke-linecap="round" stroke-linejoin="round"/>
<path opacity="0.4" d="M59.9195 111.276C61.1071 110.968 62.3284 110.805 63.5559 110.792C65.7616 110.738 67.1719 111.153 68.9799 110.265C70.7879 109.378 71.9608 110.976 73.6897 110.089C75.4186 109.201 76.2209 107.781 77.2198 107.813C78.2187 107.844 79.7058 91.9781 80.1849 89.2475C80.6641 86.517 81.6833 78.9055 82.0336 77.3599L80.0652 111.76L59.9195 111.276Z" fill="white"/>
<path d="M60.0145 104.506L65.5266 111.153L59.7048 110.794L60.0145 104.506Z" fill="#D214E6" stroke="#263238" stroke-linecap="round" stroke-linejoin="round"/>
<path d="M74.6431 91.3643L74.5549 93.8933C74.5427 94.2461 74.4604 94.5932 74.3128 94.9145C74.1652 95.2358 73.9552 95.5252 73.6947 95.7661C73.4343 96.007 73.1285 96.1946 72.7949 96.3184C72.4612 96.4421 72.1063 96.4995 71.7503 96.4872L69.1287 96.3953C68.7717 96.3832 68.4206 96.3013 68.0956 96.1543C67.7706 96.0073 67.4782 95.7982 67.235 95.5388C66.9918 95.2795 66.8027 94.9751 66.6786 94.6431C66.5544 94.3111 66.4977 93.9581 66.5116 93.6043L66.6291 90.3115C66.6544 89.5993 66.9641 88.9261 67.49 88.4401C68.016 87.9541 68.7151 87.695 69.4338 87.7198L72.0554 87.8094C72.1277 87.8094 72.2 87.8094 72.2814 87.8251C71.9145 88.1749 71.683 88.641 71.627 89.1424C71.571 89.6439 71.6941 90.1489 71.9749 90.5697C72.2557 90.9905 72.6764 91.3005 73.1639 91.4456C73.6514 91.5908 74.1748 91.562 74.6431 91.3643Z" fill="#D214E6" stroke="#263238" stroke-linecap="round" stroke-linejoin="round"/>
<path d="M75.1153 89.1803C75.1071 89.4235 75.0264 89.6587 74.8833 89.8563C74.7402 90.054 74.5411 90.2051 74.3114 90.2906C74.0816 90.3761 73.8314 90.3921 73.5924 90.3367C73.3535 90.2812 73.1364 90.1568 72.9689 89.9791C72.8013 89.8014 72.6906 89.5784 72.6509 89.3383C72.6112 89.0983 72.6442 88.8519 72.7457 88.6305C72.8473 88.409 73.0128 88.2224 73.2214 88.0942C73.43 87.966 73.6722 87.902 73.9175 87.9103C74.246 87.9219 74.5565 88.0621 74.781 88.3002C75.0055 88.5382 75.1257 88.8547 75.1153 89.1803Z" fill="#D214E6" stroke="#263238" stroke-linecap="round" stroke-linejoin="round"/>
<path opacity="0.4" d="M67.2578 93.9179L71.1111 90.652C71.1111 90.652 70.6229 88.9025 71.1111 88.3493H69.2601C68.8144 88.3478 68.3849 88.5151 68.0593 88.8169C67.7338 89.1187 67.5368 89.5323 67.5086 89.9733L67.2578 93.9179Z" fill="white"/>
<path opacity="0.4" d="M73.3513 89.2475L74.1762 88.3515C74.1762 88.3515 73.6631 88.0088 73.3513 88.3515C73.0394 88.6943 73.3513 89.2475 73.3513 89.2475Z" fill="white"/>
<path d="M72.949 108.76L79.1617 109.027" stroke="#263238" stroke-linecap="round" stroke-linejoin="round"/>
<path d="M70.7966 109.381L79.1609 109.824" stroke="#263238" stroke-linecap="round" stroke-linejoin="round"/>
<path d="M76.9705 111.152H79.1604" stroke="#263238" stroke-linecap="round" stroke-linejoin="round"/>
<path opacity="0.2" d="M69.3565 88.5352C66.1518 90.0629 62.6804 84.7115 61.4646 83.9746C61.1648 83.787 60.8853 83.5693 60.6306 83.325L61.1595 74.5442L70.5407 74.9183C70.4797 76.2264 70.5 77.6712 70.7938 78.5023C71.4266 80.3144 72.5589 87.0098 69.3565 88.5352Z" fill="black" fill-opacity="0.7"/>
<path opacity="0.4" d="M65.7654 88.8085C65.7654 88.8085 68.3282 89.9106 69.4899 89.2565C70.6515 88.6024 71.9035 87.3525 72.0821 84.5771C72.0821 84.5771 73.6076 88.4859 70.5317 89.6575C67.4559 90.829 65.7654 88.8085 65.7654 88.8085Z" fill="white"/>
<path opacity="0.4" d="M64.7672 90.372C64.7672 90.372 69.9652 91.7563 72.1891 89.252C72.1891 89.252 71.8907 90.6431 69.4906 91.044C67.0905 91.445 64.7672 90.372 64.7672 90.372Z" fill="white"/>
<path opacity="0.4" d="M73.1275 81.4232C72.732 80.7266 73.2179 86.9874 73.2179 86.9874C73.2179 86.9874 73.932 82.8524 73.1275 81.4232Z" fill="white"/>
<path d="M82.6594 75.3999L80.4672 112.304L58.9316 111.603L60.6312 83.325L61.16 74.5442L70.5435 74.9183L82.6594 75.3999Z" stroke="#263238" stroke-linecap="round" stroke-linejoin="round"/>
<path opacity="0.4" d="M81.5694 112.501L80.7852 112.304L82.6587 78.5089L82.9909 80.74L81.5694 112.501Z" fill="white"/>
<path d="M69.3573 88.5352C69.0609 88.6912 68.7314 88.7753 68.3958 88.7803C68.0603 88.7854 67.7283 88.7114 67.4273 88.5643C66.9063 88.2933 66.486 87.8649 66.2272 87.3412C65.3345 85.7463 62.9186 82.1131 62.4734 81.0692C62.0281 80.0254 61.0428 77.0731 60.0597 75.8344C59.0766 74.5956 58.5387 72.732 58.5387 72.732L58.1816 54.6552C58.7172 57.2692 60.193 60.2372 60.193 60.2372C61.4752 60.8985 62.5646 61.875 63.357 63.0731C63.5877 63.3165 63.7943 63.5813 63.974 63.8638C65.434 66.1038 66.1413 70.1358 66.2182 73.2718C66.3086 76.8177 67.4702 78.4238 69.3483 81.5128C71.2263 84.6017 70.5777 87.8475 69.3573 88.5352Z" fill="white"/>
<path opacity="0.4" d="M69.3567 88.5352C69.0591 88.6875 68.73 88.7694 68.3951 88.7745C68.0603 88.7795 67.7288 88.7076 67.4267 88.5643C68.4527 88.2865 69.7997 87.7646 69.49 86.9963C69.0041 85.7688 67.5826 87.5899 66.8684 86.9963C66.1543 86.4027 63.5598 82.9979 65.2073 81.4993C66.8549 80.0008 66.3373 77.4875 65.2073 76.7797C64.0773 76.0718 64.8118 74.3851 65.1689 71.7307C65.3949 70.1246 64.6197 66.4869 63.9824 63.8616C65.4424 66.1016 66.1498 70.1336 66.2266 73.2696C66.317 76.8155 67.4786 78.4216 69.3567 81.5105C71.2348 84.5995 70.5771 87.8901 69.3567 88.5352Z" fill="#D214E6"/>
<path d="M58.1816 54.644C58.7172 57.2581 60.193 60.2261 60.193 60.2261C61.4752 60.8873 62.5646 61.8638 63.357 63.0619C65.2351 65.0107 66.13 69.708 66.2182 73.2517C66.3063 76.7953 67.4702 78.4037 69.3483 81.4926C71.2263 84.5816 70.7043 87.8027 69.3483 88.5352C68.4036 89.0481 67.1131 88.9361 66.2182 87.3413C65.3232 85.7464 62.9095 82.1131 62.4643 81.0693C62.0191 80.0254 61.0337 77.0731 60.0506 75.8344C59.0675 74.5957 58.5297 72.732 58.5297 72.732" stroke="#263238" stroke-linecap="round" stroke-linejoin="round"/>
<path d="M63.9883 80.74C63.9883 80.74 65.4482 80.6101 66.1172 80.068" stroke="#263238" stroke-linecap="round" stroke-linejoin="round"/>
<path d="M58.0022 73.0881C58.0022 73.0881 57.7175 73.7601 59.2091 74.4321" stroke="#263238" stroke-linecap="round" stroke-linejoin="round"/>
<defs>
<filter id="filter0_f_1_2048" x="0.970703" y="0.925598" width="184.387" height="184.387" filterUnits="userSpaceOnUse" color-interpolation-filters="sRGB">
<feFlood flood-opacity="0" result="BackgroundImageFix"/>
<feBlend mode="normal" in="SourceGraphic" in2="BackgroundImageFix" result="shape"/>
<feGaussianBlur stdDeviation="18.5" result="effect1_foregroundBlur_1_2048"/>
</filter>
</defs>
</svg>
