<svg width="21" height="20" viewBox="0 0 21 20" fill="none" xmlns="http://www.w3.org/2000/svg">
<path d="M7.63186 9.15725L7.63186 10.8239L5.96519 10.8239L5.96519 9.15725M14.2985 9.15725L14.2985 10.8239L9.29852 10.8239L9.29852 9.15725M1.79852 9.99058C1.79852 11.0849 2.01407 12.1686 2.43286 13.1796C2.85165 14.1907 3.46548 15.1093 4.2393 15.8831C5.8021 17.4459 7.92172 18.3239 10.1319 18.3239C12.342 18.3239 14.4616 17.4459 16.0244 15.8831C16.7982 15.1093 17.4121 14.1907 17.8309 13.1796C18.2496 12.1686 18.4652 11.0849 18.4652 9.99058C18.4652 7.78044 17.5872 5.66083 16.0244 4.09802C14.4616 2.53522 12.342 1.65725 10.1319 1.65725C9.03751 1.65725 7.95387 1.87279 6.94283 2.29158C5.93178 2.71037 5.01312 3.3242 4.2393 4.09802C3.46548 4.87185 2.85165 5.79051 2.43286 6.80155C2.01407 7.8126 1.79852 8.89623 1.79852 9.99058Z" fill="white" fill-opacity="0.4"/>
</svg>
