<svg width="21" height="20" viewBox="0 0 21 20" fill="none" xmlns="http://www.w3.org/2000/svg">
<path d="M17.6318 4.99062C17.6318 6.1434 17.2257 7.1259 16.4135 7.93812C15.6007 8.7509 14.6179 9.15729 13.4652 9.15729C12.3124 9.15729 11.3296 8.7509 10.5168 7.93812C9.70461 7.1259 9.2985 6.1434 9.2985 4.99062C9.2985 3.83784 9.70461 2.85506 10.5168 2.04229C11.3296 1.23006 12.3124 0.823953 13.4652 0.823953C14.6179 0.823953 15.6007 1.23006 16.4135 2.04229C17.2257 2.85506 17.6318 3.83784 17.6318 4.99062ZM13.8818 5.40729L15.5485 5.40729C15.6596 5.40729 15.7568 5.36562 15.8402 5.28229C15.9235 5.19895 15.9652 5.10173 15.9652 4.99062C15.9652 4.87951 15.9235 4.78229 15.8402 4.69895C15.7568 4.61562 15.6596 4.57395 15.5485 4.57395L13.8818 4.57395L13.8818 2.90729C13.8818 2.79618 13.8402 2.69895 13.7568 2.61562C13.6735 2.53229 13.5763 2.49062 13.4652 2.49062C13.3541 2.49062 13.2568 2.53229 13.1735 2.61562C13.0902 2.69895 13.0485 2.79618 13.0485 2.90729L13.0485 4.57395L11.3818 4.57395C11.2707 4.57395 11.1735 4.61562 11.0902 4.69895C11.0068 4.78229 10.9652 4.87951 10.9652 4.99062C10.9652 5.10173 11.0068 5.19895 11.0902 5.28229C11.1735 5.36562 11.2707 5.40729 11.3818 5.40729L13.0485 5.40729L13.0485 7.07395C13.0485 7.18506 13.0902 7.28229 13.1735 7.36562C13.2568 7.44895 13.3541 7.49062 13.4652 7.49062C13.5763 7.49062 13.6735 7.44895 13.7568 7.36562C13.8402 7.28229 13.8818 7.18506 13.8818 7.07395L13.8818 5.40729ZM15.9652 10.2615L15.9652 14.9906C15.9652 15.449 15.8021 15.8412 15.476 16.1673C15.1493 16.494 14.7568 16.6573 14.2985 16.6573L6.7985 16.6573C6.53461 16.6573 6.28461 16.5981 6.0485 16.4798C5.81239 16.362 5.61795 16.199 5.46517 15.9906L1.71517 10.9906C1.49295 10.699 1.38184 10.3656 1.38184 9.99062C1.38184 9.61562 1.49295 9.28229 1.71517 8.99062L5.46517 3.99062C5.61795 3.78229 5.81239 3.61895 6.0485 3.50062C6.28461 3.38284 6.53461 3.32395 6.7985 3.32395L7.88184 3.32395C7.7985 3.58784 7.736 3.85868 7.69433 4.13645C7.65267 4.41423 7.63184 4.69895 7.63184 4.99062C7.63184 6.61562 8.19767 7.99395 9.32934 9.12562C10.4616 10.2578 11.8402 10.824 13.4652 10.824C13.8957 10.824 14.3229 10.7787 14.7468 10.6881C15.1702 10.5981 15.5763 10.4559 15.9652 10.2615Z" fill="#D214E6"/>
</svg>
