<svg width="21" height="20" viewBox="0 0 21 20" fill="none" xmlns="http://www.w3.org/2000/svg">
<path d="M5.95848 12.0756C5.73747 12.0756 5.52551 12.1634 5.36923 12.3197C5.21295 12.476 5.12515 12.6879 5.12515 12.909V14.394C4.05105 13.1793 3.45826 11.6137 3.45848 9.99228C3.45812 9.74719 3.47259 9.5023 3.50182 9.25895C3.51772 9.14902 3.51148 9.03703 3.48348 8.92955C3.45547 8.82207 3.40626 8.72127 3.33874 8.63308C3.27122 8.54488 3.18675 8.47108 3.0903 8.416C2.99385 8.36092 2.88736 8.32568 2.77709 8.31235C2.66683 8.29902 2.55501 8.30786 2.44821 8.33837C2.34141 8.36887 2.24178 8.42042 2.15519 8.48998C2.0686 8.55953 1.99678 8.6457 1.94397 8.74341C1.89116 8.84112 1.85841 8.9484 1.84765 9.05895C1.81001 9.36863 1.79137 9.68033 1.79182 9.99228C1.79295 11.9808 2.50766 13.9028 3.80598 15.409H2.62515C2.40414 15.409 2.19218 15.4967 2.03589 15.653C1.87961 15.8093 1.79182 16.0213 1.79182 16.2423C1.79182 16.4633 1.87961 16.6753 2.03589 16.8315C2.19218 16.9878 2.40414 17.0756 2.62515 17.0756H5.95848C6.08881 17.0739 6.21684 17.0411 6.33193 16.98C6.44702 16.9188 6.54584 16.831 6.62015 16.724C6.62932 16.7115 6.64182 16.7015 6.65098 16.6881C6.65682 16.6798 6.65682 16.6698 6.66182 16.6615C6.70151 16.5944 6.73126 16.522 6.75015 16.4465C6.76265 16.4039 6.77157 16.3605 6.77682 16.3165C6.77932 16.2915 6.79182 16.269 6.79182 16.2423V12.909C6.79182 12.6879 6.70402 12.476 6.54774 12.3197C6.39146 12.1634 6.1795 12.0756 5.95848 12.0756ZM7.20848 4.99228H5.72265C6.93761 3.91813 8.50344 3.32535 10.1251 3.32562C10.3703 3.32508 10.6152 3.33983 10.8585 3.36978C11.0781 3.39631 11.2992 3.33451 11.4732 3.198C11.6472 3.06149 11.7599 2.86144 11.7864 2.64187C11.8129 2.42229 11.7511 2.20117 11.6146 2.02715C11.4781 1.85313 11.2781 1.74047 11.0585 1.71395C10.7488 1.6767 10.4371 1.65833 10.1251 1.65895C8.13666 1.66009 6.21462 2.37479 4.70848 3.67312V2.49228C4.70848 2.27127 4.62069 2.05931 4.46441 1.90303C4.30813 1.74675 4.09616 1.65895 3.87515 1.65895C3.65414 1.65895 3.44218 1.74675 3.28589 1.90303C3.12961 2.05931 3.04182 2.27127 3.04182 2.49228V5.82562C3.04696 5.88077 3.05785 5.93523 3.07432 5.98812C3.09441 6.09094 3.13432 6.18887 3.19182 6.27645L3.20182 6.29062C3.25678 6.37057 3.32565 6.44 3.40515 6.49562C3.41432 6.50228 3.41932 6.51228 3.42848 6.51895C3.44015 6.52728 3.45348 6.52978 3.46598 6.53645C3.51342 6.56492 3.56369 6.58838 3.61598 6.60645C3.68616 6.63092 3.75932 6.64578 3.83348 6.65062C3.84848 6.65062 3.86015 6.65895 3.87515 6.65895H7.20848C7.4295 6.65895 7.64146 6.57115 7.79774 6.41487C7.95402 6.25859 8.04182 6.04663 8.04182 5.82562C8.04182 5.6046 7.95402 5.39264 7.79774 5.23636C7.64146 5.08008 7.4295 4.99228 7.20848 4.99228ZM17.1751 13.9956C17.155 13.8931 17.1151 13.7954 17.0577 13.7081L17.0485 13.694C16.9933 13.6139 16.9241 13.5445 16.8443 13.489C16.8351 13.4823 16.831 13.4723 16.821 13.4656C16.8126 13.4598 16.8018 13.4598 16.7926 13.454C16.6869 13.395 16.571 13.3566 16.451 13.3406C16.4243 13.3381 16.4018 13.3256 16.3751 13.3256H13.0418C12.8208 13.3256 12.6088 13.4134 12.4526 13.5697C12.2963 13.726 12.2085 13.9379 12.2085 14.159C12.2085 14.38 12.2963 14.5919 12.4526 14.7482C12.6088 14.9045 12.8208 14.9923 13.0418 14.9923H14.5268C13.3121 16.0663 11.7466 16.6591 10.1251 16.659C9.88001 16.6592 9.63509 16.6442 9.39182 16.614C9.17224 16.5874 8.95112 16.6492 8.7771 16.7857C8.60308 16.9222 8.49042 17.1223 8.4639 17.3419C8.43738 17.5614 8.49917 17.7826 8.63568 17.9566C8.77219 18.1306 8.97224 18.2433 9.19182 18.2698C9.50153 18.307 9.8132 18.3257 10.1251 18.3256C12.1136 18.3245 14.0357 17.6098 15.5418 16.3115V17.4923C15.5418 17.7133 15.6296 17.9253 15.7859 18.0815C15.9422 18.2378 16.1541 18.3256 16.3751 18.3256C16.5962 18.3256 16.8081 18.2378 16.9644 18.0815C17.1207 17.9253 17.2085 17.7133 17.2085 17.4923V14.159C17.2031 14.1038 17.1919 14.0493 17.1751 13.9965V13.9956ZM17.6251 4.57562C17.8462 4.57562 18.0581 4.48782 18.2144 4.33154C18.3707 4.17526 18.4585 3.9633 18.4585 3.74228C18.4585 3.52127 18.3707 3.30931 18.2144 3.15303C18.0581 2.99675 17.8462 2.90895 17.6251 2.90895H14.2918C14.2375 2.91425 14.1839 2.92514 14.1318 2.94145L14.126 2.94228C14.025 2.96271 13.9288 3.00232 13.8426 3.05895L13.826 3.06978C13.7463 3.12484 13.6772 3.19371 13.6218 3.27312C13.6152 3.28145 13.6052 3.28645 13.5985 3.29562C13.5927 3.30395 13.5927 3.31478 13.5868 3.32395C13.5274 3.43039 13.489 3.54721 13.4735 3.66812C13.471 3.69312 13.4585 3.71562 13.4585 3.74228V7.07562C13.4585 7.29663 13.5463 7.50859 13.7026 7.66487C13.8588 7.82115 14.0708 7.90895 14.2918 7.90895C14.5128 7.90895 14.7248 7.82115 14.8811 7.66487C15.0374 7.50859 15.1251 7.29663 15.1251 7.07562V5.58978C16.1992 6.80478 16.792 8.37059 16.7918 9.99228C16.7919 10.2374 16.7772 10.4823 16.7476 10.7256C16.7213 10.9449 16.783 11.1657 16.9192 11.3396C17.0554 11.5135 17.2551 11.6262 17.4743 11.6531C17.5081 11.6571 17.542 11.659 17.576 11.659C17.7794 11.6586 17.9757 11.5838 18.1278 11.4487C18.28 11.3137 18.3774 11.1276 18.4018 10.9256C18.4397 10.616 18.4587 10.3043 18.4585 9.99228C18.4573 8.0038 17.7426 6.08175 16.4443 4.57562H17.6251Z" fill="white" fill-opacity="0.4"/>
</svg>
