<svg width="21" height="20" viewBox="0 0 21 20" fill="none" xmlns="http://www.w3.org/2000/svg">
<path d="M11.5569 8.18224L9.54019 7.01558C9.41519 6.94058 9.25686 6.97391 9.16519 7.08224L8.19852 8.31558C8.01519 8.29058 7.82352 8.27391 7.63186 8.27391C7.44019 8.27391 7.24852 8.29058 7.05686 8.31558L6.09019 7.08224C5.99852 6.97391 5.84019 6.94058 5.71519 7.01558L3.69852 8.18224C3.57352 8.25724 3.52352 8.40724 3.57352 8.54058L4.15686 9.99058C3.92352 10.2906 3.73186 10.6156 3.58186 10.9739L2.04019 11.1906C1.97279 11.2046 1.91215 11.241 1.86824 11.2941C1.82432 11.3471 1.79973 11.4134 1.79852 11.4822L1.79852 13.8156C1.79852 13.9572 1.90686 14.0822 2.04852 14.1072L3.59019 14.3239C3.74019 14.6739 3.93186 15.0072 4.16519 15.3072L3.58186 16.7572C3.53186 16.8906 3.58186 17.0406 3.70686 17.1156L5.72352 18.2822C5.84852 18.3572 6.00686 18.3239 6.09852 18.2156L7.06519 16.9822C7.24852 17.0072 7.44019 17.0239 7.63186 17.0239C7.82352 17.0239 8.01519 17.0072 8.20686 16.9822L9.17352 18.2156C9.26519 18.3239 9.42352 18.3572 9.54852 18.2822L11.5652 17.1156C11.6902 17.0406 11.7402 16.8906 11.6902 16.7572L11.1069 15.3072C11.3402 15.0072 11.5319 14.6822 11.6819 14.3239L13.2235 14.1072C13.3569 14.0822 13.4652 13.9572 13.4652 13.8156L13.4652 11.4822C13.4652 11.3406 13.3569 11.2156 13.2152 11.1906L11.6735 10.9739C11.5235 10.6239 11.3319 10.2906 11.0985 9.99058L11.6819 8.54058C11.7319 8.40724 11.6819 8.25724 11.5569 8.18224ZM9.29852 12.6489C9.29852 13.5656 8.54852 14.3156 7.63186 14.3156C6.71519 14.3156 5.96519 13.5656 5.96519 12.6489C5.96519 11.7322 6.71519 10.9822 7.63186 10.9822C8.54852 10.9822 9.29852 11.7322 9.29852 12.6489ZM15.6902 1.72391L15.0735 2.52391C14.9569 2.50724 14.8319 2.49058 14.7069 2.49058C14.5819 2.49058 14.4569 2.49891 14.3402 2.52391L13.7235 1.73224C13.6652 1.66558 13.5652 1.64058 13.4819 1.69058L12.1902 2.44058C12.1069 2.48224 12.0819 2.58224 12.1069 2.67391L12.4819 3.59891C12.3319 3.79058 12.2069 3.99891 12.1152 4.23224L11.1319 4.37391C11.0873 4.3772 11.0456 4.39694 11.0148 4.42928C10.984 4.46162 10.9663 4.50426 10.9652 4.54891L10.9652 6.04058C10.9652 6.13224 11.0319 6.21558 11.1235 6.22391L12.1069 6.36558C12.2069 6.59058 12.3235 6.80724 12.4735 6.99891L12.0985 7.92391C12.0826 7.96637 12.0822 8.01313 12.0974 8.05585C12.1127 8.09858 12.1426 8.1345 12.1819 8.15724L13.4735 8.90724C13.5569 8.94891 13.6569 8.94058 13.7152 8.86558L14.3319 8.07391C14.5751 8.10828 14.822 8.10828 15.0652 8.07391L15.6819 8.86558C15.7402 8.93224 15.8402 8.95724 15.9235 8.90724L17.2152 8.15724C17.2985 8.11558 17.3235 8.01558 17.2985 7.92391L16.9235 6.99891C17.0735 6.80724 17.1985 6.59891 17.2902 6.36558L18.2735 6.22391C18.3652 6.20724 18.4319 6.13224 18.4319 6.04058L18.4319 4.54891C18.4319 4.45724 18.3652 4.37391 18.2735 4.36558L17.2902 4.22391C17.1902 3.99891 17.0735 3.78224 16.9235 3.59891L17.2985 2.66558C17.3319 2.58224 17.2985 2.48224 17.2152 2.43224L15.9235 1.68224C15.8485 1.63224 15.7485 1.65724 15.6902 1.72391ZM15.8235 5.29891C15.8234 5.59739 15.7047 5.8836 15.4936 6.09458C15.2825 6.30555 14.9962 6.42402 14.6977 6.42391C14.3992 6.4238 14.113 6.30512 13.902 6.09399C13.691 5.88285 13.5726 5.59655 13.5727 5.29808C13.5728 4.9996 13.6915 4.71339 13.9026 4.50241C14.1137 4.29143 14.4 4.17296 14.6985 4.17308C14.997 4.17319 15.2832 4.29186 15.4942 4.503C15.7052 4.71413 15.8236 5.00043 15.8235 5.29891Z" fill="#D214E6"/>
</svg>
